<?xml version="1.0" encoding="UTF-8"?>
<!DOCTYPE svg PUBLIC "-//W3C//DTD SVG 1.1//EN" "http://www.w3.org/Graphics/SVG/1.1/DTD/svg11.dtd">
<svg xmlns="http://www.w3.org/2000/svg" version="1.1" width="2000px" height="516px" style="shape-rendering:geometricPrecision; text-rendering:geometricPrecision; image-rendering:optimizeQuality; fill-rule:evenodd; clip-rule:evenodd" xmlns:xlink="http://www.w3.org/1999/xlink">
<g><path style="opacity:0.914" fill="#010101" d="M 195.5,110.5 C 240.505,110.167 285.505,110.5 330.5,111.5C 332.001,113.957 333.668,113.957 335.5,111.5C 380.5,110.167 425.5,110.167 470.5,111.5C 477.141,114.308 481.974,118.974 485,125.5C 485.667,147.167 485.667,168.833 485,190.5C 480.967,198.668 474.634,204.001 466,206.5C 465.83,241.405 465.33,276.238 464.5,311C 465.226,312.397 466.393,313.231 468,313.5C 471.925,311.783 476.092,311.116 480.5,311.5C 480.572,308.807 480.905,306.14 481.5,303.5C 492.335,268.358 503.335,233.524 514.5,199C 510.688,195.214 508.021,190.714 506.5,185.5C 505.334,167.176 505.167,148.842 506,130.5C 508.691,122.294 513.857,115.961 521.5,111.5C 573.833,110.167 626.167,110.167 678.5,111.5C 682.721,113.711 686.388,116.711 689.5,120.5C 692.368,126.156 694.701,131.99 696.5,138C 709.884,181.225 723.384,225.392 737,270.5C 737.333,270.167 737.667,269.833 738,269.5C 738.713,275.307 740.046,280.974 742,286.5C 744.451,294.471 747.284,302.304 750.5,310C 750.167,310.333 749.833,310.667 749.5,311C 754.541,311.733 759.541,312.566 764.5,313.5C 763.179,277.821 763.179,242.154 764.5,206.5C 756.439,203.597 750.439,198.43 746.5,191C 745.839,188.536 745.339,186.036 745,183.5C 744.065,164.456 744.398,145.456 746,126.5C 748.97,119.697 753.803,114.697 760.5,111.5C 811.833,110.167 863.167,110.167 914.5,111.5C 932.427,113.085 950.094,118.085 967.5,126.5C 977.366,132.335 985.866,139.668 993,148.5C 993.253,141.124 993.919,133.791 995,126.5C 997.978,119.689 1002.81,114.689 1009.5,111.5C 1056.83,110.167 1104.17,110.167 1151.5,111.5C 1154.05,114.075 1156.71,114.075 1159.5,111.5C 1197.83,110.167 1236.17,110.167 1274.5,111.5C 1281.94,115.108 1287.11,120.775 1290,128.5C 1290.83,147.842 1290.67,167.175 1289.5,186.5C 1284.09,199.882 1274.09,206.216 1259.5,205.5C 1242.6,236.453 1225.27,267.287 1207.5,298C 1204.9,302.828 1203.9,307.994 1204.5,313.5C 1214.25,315.415 1220.75,321.082 1224,330.5C 1224.67,350.5 1224.67,370.5 1224,390.5C 1220.73,401.772 1213.23,407.939 1201.5,409C 1162.17,409.667 1122.83,409.667 1083.5,409C 1071.46,407.636 1063.63,401.136 1060,389.5C 1059.33,370.167 1059.33,350.833 1060,331.5C 1064.09,321.744 1071.26,315.577 1081.5,313C 1080.7,309.255 1080.2,305.421 1080,301.5C 1061.02,269.845 1042.02,238.178 1023,206.5C 1018.43,205.818 1013.93,204.818 1009.5,203.5C 1010.9,225.876 1003.23,245.543 986.5,262.5C 988.523,265.869 991.023,268.869 994,271.5C 996.15,276.119 997.983,280.785 999.5,285.5C 1006.84,285.334 1014.17,285.5 1021.5,286C 1040.58,290.13 1048.58,302.63 1045.5,323.5C 1048.47,350.614 1040.81,374.114 1022.5,394C 1011.02,404.226 998.349,410.56 984.5,413C 973.573,414.597 962.573,414.931 951.5,414C 949.699,413.683 949.366,413.016 950.5,412C 934.361,411.169 919.861,406.003 907,396.5C 902.879,404.273 896.379,408.439 887.5,409C 795.186,409.085 702.852,409.085 610.5,409C 607.07,408.568 603.736,407.734 600.5,406.5C 596.71,407.98 592.71,408.813 588.5,409C 569,409.167 549.5,409.333 530,409.5C 467.518,409.291 405.018,409.125 342.5,409C 339.206,408.654 336.039,407.821 333,406.5C 329.72,407.975 326.22,408.808 322.5,409C 282.5,409.667 242.5,409.667 202.5,409C 193.194,407.699 186.361,402.866 182,394.5C 181.333,371.833 181.333,349.167 182,326.5C 185.167,321.333 189.333,317.167 194.5,314C 196.134,313.506 197.801,313.34 199.5,313.5C 199.5,277.5 199.5,241.5 199.5,205.5C 191.955,204.243 186.121,199.576 182,191.5C 181.333,169.167 181.333,146.833 182,124.5C 185.751,118.919 190.251,114.252 195.5,110.5 Z M 330.5,203.5 C 333.734,204.576 337.068,205.243 340.5,205.5C 340.662,207.527 340.495,209.527 340,211.5C 334.593,210.527 329.093,210.193 323.5,210.5C 323.238,209.022 323.571,207.689 324.5,206.5C 327.047,206.229 329.047,205.229 330.5,203.5 Z M 323.5,308.5 C 329.167,308.5 334.833,308.5 340.5,308.5C 340.5,310.167 340.5,311.833 340.5,313.5C 337.71,313.222 335.21,313.889 333,315.5C 330.663,314.192 328.163,313.192 325.5,312.5C 324.147,311.476 323.48,310.143 323.5,308.5 Z"/></g>
<g><path style="opacity:0.906" fill="#010101" d="M 1394.5,110.5 C 1525.84,110.167 1657.17,110.5 1788.5,111.5C 1796.64,115.804 1801.48,122.471 1803,131.5C 1803.96,166.534 1803.63,201.534 1802,236.5C 1800.25,238.49 1799.25,240.823 1799,243.5C 1798.67,243.167 1798.33,242.833 1798,242.5C 1794.28,248.046 1789.12,251.379 1782.5,252.5C 1772.67,252.833 1762.83,253.167 1753,253.5C 1742.67,253.476 1732.51,252.809 1722.5,251.5C 1721.5,271.489 1721.17,291.489 1721.5,311.5C 1733.27,310.958 1742.27,315.625 1748.5,325.5C 1749.3,327.078 1749.8,328.744 1750,330.5C 1750.8,351.02 1750.64,371.52 1749.5,392C 1746.07,402.095 1739.07,407.761 1728.5,409C 1682.83,409.667 1637.17,409.667 1591.5,409C 1580.55,407.608 1573.05,401.775 1569,391.5C 1568.17,370.492 1568.33,349.492 1569.5,328.5C 1575.4,316.546 1585.06,310.713 1598.5,311C 1597.84,291.231 1597.17,271.398 1596.5,251.5C 1586.33,252.809 1575.99,253.476 1565.5,253.5C 1555.5,253.333 1545.5,253.167 1535.5,253C 1535.83,252.667 1536.17,252.333 1536.5,252C 1533.43,251.853 1530.6,251.02 1528,249.5C 1527.83,270.073 1527.33,290.573 1526.5,311C 1536.4,313.572 1543.56,319.405 1548,328.5C 1548.83,349.841 1548.67,371.174 1547.5,392.5C 1543.43,402.407 1536.1,407.907 1525.5,409C 1483.49,409.811 1441.49,409.645 1399.5,408.5C 1389.2,405.587 1382.7,398.921 1380,388.5C 1379.67,374.833 1379.33,361.167 1379,347.5C 1343.95,348.479 1308.95,348.812 1274,348.5C 1261.96,345.792 1254.62,338.458 1252,326.5C 1251.33,308.167 1251.33,289.833 1252,271.5C 1254.98,258.52 1263.15,251.686 1276.5,251C 1276.17,250.667 1275.83,250.333 1275.5,250C 1311.17,249.333 1346.83,249.333 1382.5,250C 1382.17,250.333 1381.83,250.667 1381.5,251C 1389.39,251.298 1395.89,254.464 1401,260.5C 1401.18,242.79 1401.68,225.123 1402.5,207.5C 1401.96,205.729 1401.13,205.396 1400,206.5C 1389.5,203.161 1382.83,196.161 1380,185.5C 1379.33,167.167 1379.33,148.833 1380,130.5C 1382.04,122.463 1386.7,116.463 1394,112.5C 1394.46,111.906 1394.63,111.239 1394.5,110.5 Z"/></g>
<g><path style="opacity:1" fill="#141414" d="M 769.5,133.5 C 814.331,132.335 859.331,132.169 904.5,133C 907.31,133.782 909.977,134.616 912.5,135.5C 908.143,135.414 903.81,135.08 899.5,134.5C 856.337,133.501 813.003,133.168 769.5,133.5 Z"/></g>
<g><path style="opacity:1" fill="#737373" d="M 769.5,133.5 C 813.003,133.168 856.337,133.501 899.5,134.5C 856.167,134.5 812.833,134.5 769.5,134.5C 769.5,149.833 769.5,165.167 769.5,180.5C 769.167,180.5 768.833,180.5 768.5,180.5C 768.17,164.658 768.504,148.991 769.5,133.5 Z"/></g>
<g><path style="opacity:1" fill="#727272" d="M 1405.5,134.5 C 1405.5,134.167 1405.5,133.833 1405.5,133.5C 1444.83,133.5 1484.17,133.5 1523.5,133.5C 1523.83,149.675 1523.5,165.675 1522.5,181.5C 1522.5,165.833 1522.5,150.167 1522.5,134.5C 1483.5,134.5 1444.5,134.5 1405.5,134.5 Z"/></g>
<g><path style="opacity:1" fill="#d4d4d4" d="M 531.5,134.5 C 576.833,134.5 622.167,134.5 667.5,134.5C 669.176,135.183 669.843,136.517 669.5,138.5C 668.078,138.25 667.078,137.417 666.5,136C 621.835,135.5 577.168,135.333 532.5,135.5C 532.5,150.167 532.5,164.833 532.5,179.5C 531.504,164.676 531.171,149.676 531.5,134.5 Z"/></g>
<g><path style="opacity:1" fill="#d0d0d0" d="M 899.5,134.5 C 903.81,135.08 908.143,135.414 912.5,135.5C 913.5,135.5 914.5,135.5 915.5,135.5C 919.21,137.136 923.21,137.802 927.5,137.5C 927.842,138.338 928.508,138.672 929.5,138.5C 929.5,138.833 929.5,139.167 929.5,139.5C 923.992,139.254 918.659,138.42 913.5,137C 865.845,135.635 818.179,135.135 770.5,135.5C 770.5,150.167 770.5,164.833 770.5,179.5C 776.69,179.177 782.69,179.51 788.5,180.5C 782.167,180.5 775.833,180.5 769.5,180.5C 769.5,165.167 769.5,149.833 769.5,134.5C 812.833,134.5 856.167,134.5 899.5,134.5 Z"/></g>
<g><path style="opacity:1" fill="#cdcdcd" d="M 1139.5,134.5 C 1139.5,149.5 1139.5,164.5 1139.5,179.5C 1133.5,179.5 1127.5,179.5 1121.5,179.5C 1126.98,178.511 1132.64,178.178 1138.5,178.5C 1138.5,164.167 1138.5,149.833 1138.5,135.5C 1098.83,135.5 1059.17,135.5 1019.5,135.5C 1019.5,150.167 1019.5,164.833 1019.5,179.5C 1025.03,179.179 1030.36,179.512 1035.5,180.5C 1029.64,180.822 1023.98,180.489 1018.5,179.5C 1018.5,164.5 1018.5,149.5 1018.5,134.5C 1058.83,134.5 1099.17,134.5 1139.5,134.5 Z"/></g>
<g><path style="opacity:1" fill="#cbcbcb" d="M 1263.5,179.5 C 1263.5,179.833 1263.5,180.167 1263.5,180.5C 1257.17,180.5 1250.83,180.5 1244.5,180.5C 1250.31,179.51 1256.31,179.177 1262.5,179.5C 1262.5,164.833 1262.5,150.167 1262.5,135.5C 1231.5,135.5 1200.5,135.5 1169.5,135.5C 1169.5,150.167 1169.5,164.833 1169.5,179.5C 1168.5,164.676 1168.17,149.676 1168.5,134.5C 1200.17,134.5 1231.83,134.5 1263.5,134.5C 1263.5,149.5 1263.5,164.5 1263.5,179.5 Z"/></g>
<g><path style="opacity:1" fill="#cbcbcb" d="M 1538.5,134.5 C 1618.17,134.5 1697.83,134.5 1777.5,134.5C 1777.5,165.167 1777.5,195.833 1777.5,226.5C 1760.33,226.83 1743.33,226.497 1726.5,225.5C 1743.17,225.5 1759.83,225.5 1776.5,225.5C 1776.5,195.5 1776.5,165.5 1776.5,135.5C 1697.5,135.5 1618.5,135.5 1539.5,135.5C 1539.5,165.5 1539.5,195.5 1539.5,225.5C 1556.33,226.497 1573.33,226.83 1590.5,226.5C 1590.5,226.833 1590.5,227.167 1590.5,227.5C 1573.17,227.5 1555.83,227.5 1538.5,227.5C 1538.5,196.5 1538.5,165.5 1538.5,134.5 Z"/></g>
<g><path style="opacity:1" fill="#555555" d="M 320.5,181.5 C 320.83,165.658 320.496,149.991 319.5,134.5C 281.5,134.5 243.5,134.5 205.5,134.5C 204.504,149.991 204.17,165.658 204.5,181.5C 203.504,165.675 203.17,149.675 203.5,133.5C 242.833,133.5 282.167,133.5 321.5,133.5C 321.83,149.675 321.496,165.675 320.5,181.5 Z"/></g>
<g><path style="opacity:1" fill="#3c3c3c" d="M 1264.5,134.5 C 1265.17,141.993 1265.5,149.659 1265.5,157.5C 1265.5,165.53 1264.83,173.197 1263.5,180.5C 1263.5,180.167 1263.5,179.833 1263.5,179.5C 1264.5,164.676 1264.83,149.676 1264.5,134.5 Z"/></g>
<g><path style="opacity:1" fill="#fefefe" d="M 365.5,180.5 C 359.355,179.51 353.022,179.177 346.5,179.5C 346.5,164.833 346.5,150.167 346.5,135.5C 384.167,135.5 421.833,135.5 459.5,135.5C 459.5,150.5 459.5,165.5 459.5,180.5C 452.978,180.177 446.645,180.51 440.5,181.5C 439.501,232.664 439.168,283.997 439.5,335.5C 445.75,337.459 452.416,338.126 459.5,337.5C 459.5,352.5 459.5,367.5 459.5,382.5C 421.833,382.5 384.167,382.5 346.5,382.5C 346.5,367.5 346.5,352.5 346.5,337.5C 353.167,337.5 359.833,337.5 366.5,337.5C 366.83,318.992 366.497,300.659 365.5,282.5C 342.833,281.167 320.167,281.167 297.5,282.5C 296.338,300.329 296.171,318.329 297,336.5C 297.671,337.252 298.504,337.586 299.5,337.5C 306.167,337.5 312.833,337.5 319.5,337.5C 319.5,352.5 319.5,367.5 319.5,382.5C 281.5,382.5 243.5,382.5 205.5,382.5C 205.5,367.5 205.5,352.5 205.5,337.5C 211.167,337.5 216.833,337.5 222.5,337.5C 223.496,337.586 224.329,337.252 225,336.5C 225.5,285.168 225.667,233.834 225.5,182.5C 225.586,181.504 225.252,180.671 224.5,180C 218.509,179.501 212.509,179.334 206.5,179.5C 206.5,164.833 206.5,150.167 206.5,135.5C 243.833,135.5 281.167,135.5 318.5,135.5C 318.5,150.167 318.5,164.833 318.5,179.5C 311.245,179.187 304.079,179.52 297,180.5C 296.175,199.074 296.341,217.574 297.5,236C 320.5,236.667 343.5,236.667 366.5,236C 367.16,226.742 367.494,217.408 367.5,208C 367.498,198.475 366.832,189.308 365.5,180.5 Z M 330.5,203.5 C 329.047,205.229 327.047,206.229 324.5,206.5C 323.571,207.689 323.238,209.022 323.5,210.5C 329.093,210.193 334.593,210.527 340,211.5C 340.495,209.527 340.662,207.527 340.5,205.5C 337.068,205.243 333.734,204.576 330.5,203.5 Z M 323.5,308.5 C 323.48,310.143 324.147,311.476 325.5,312.5C 328.163,313.192 330.663,314.192 333,315.5C 335.21,313.889 337.71,313.222 340.5,313.5C 340.5,311.833 340.5,310.167 340.5,308.5C 334.833,308.5 329.167,308.5 323.5,308.5 Z"/></g>
<g><path style="opacity:1" fill="#e0e0e0" d="M 205.5,134.5 C 243.5,134.5 281.5,134.5 319.5,134.5C 319.5,149.833 319.5,165.167 319.5,180.5C 312.245,180.187 305.079,180.52 298,181.5C 297.171,199.338 297.338,217.005 298.5,234.5C 320.833,235.833 343.167,235.833 365.5,234.5C 366.824,216.598 366.824,198.598 365.5,180.5C 366.832,189.308 367.498,198.475 367.5,208C 367.494,217.408 367.16,226.742 366.5,236C 343.5,236.667 320.5,236.667 297.5,236C 296.341,217.574 296.175,199.074 297,180.5C 304.079,179.52 311.245,179.187 318.5,179.5C 318.5,164.833 318.5,150.167 318.5,135.5C 281.167,135.5 243.833,135.5 206.5,135.5C 206.5,150.167 206.5,164.833 206.5,179.5C 212.509,179.334 218.509,179.501 224.5,180C 225.252,180.671 225.586,181.504 225.5,182.5C 225.167,182.5 224.833,182.5 224.5,182.5C 224.5,181.833 224.167,181.5 223.5,181.5C 217.69,180.51 211.69,180.177 205.5,180.5C 205.5,165.167 205.5,149.833 205.5,134.5 Z M 330.5,203.5 C 329.047,205.229 327.047,206.229 324.5,206.5C 323.571,207.689 323.238,209.022 323.5,210.5C 329.093,210.193 334.593,210.527 340,211.5C 340.495,209.527 340.662,207.527 340.5,205.5C 337.068,205.243 333.734,204.576 330.5,203.5 Z"/></g>
<g><path style="opacity:1" fill="#5e5e5e" d="M 460.5,134.5 C 460.167,134.5 459.833,134.5 459.5,134.5C 421.167,134.5 382.833,134.5 344.5,134.5C 344.17,150.009 344.504,165.342 345.5,180.5C 351.833,181.167 358.167,181.833 364.5,182.5C 364.167,182.5 363.833,182.5 363.5,182.5C 356.91,182.811 350.41,182.478 344,181.5C 343.5,165.503 343.333,149.503 343.5,133.5C 382.67,133.168 421.67,133.501 460.5,134.5 Z"/></g>
<g><path style="opacity:1" fill="#d5d5d5" d="M 459.5,134.5 C 459.5,134.833 459.5,135.167 459.5,135.5C 421.833,135.5 384.167,135.5 346.5,135.5C 346.5,150.167 346.5,164.833 346.5,179.5C 353.022,179.177 359.355,179.51 365.5,180.5C 358.833,180.5 352.167,180.5 345.5,180.5C 344.504,165.342 344.17,150.009 344.5,134.5C 382.833,134.5 421.167,134.5 459.5,134.5 Z"/></g>
<g><path style="opacity:1" fill="#9e9e9e" d="M 459.5,134.5 C 459.833,134.5 460.167,134.5 460.5,134.5C 461.833,150.167 461.833,165.833 460.5,181.5C 453.833,181.5 447.167,181.5 440.5,181.5C 446.645,180.51 452.978,180.177 459.5,180.5C 459.5,165.5 459.5,150.5 459.5,135.5C 459.5,135.167 459.5,134.833 459.5,134.5 Z"/></g>
<g><path style="opacity:1" fill="#9e9e9e" d="M 531.5,134.5 C 531.171,149.676 531.504,164.676 532.5,179.5C 536.702,179.183 540.702,179.517 544.5,180.5C 539.637,180.819 534.97,180.486 530.5,179.5C 530.171,164.324 530.504,149.324 531.5,134.5 Z"/></g>
<g><path style="opacity:1" fill="#fefefe" d="M 669.5,138.5 C 669.5,138.833 669.5,139.167 669.5,139.5C 669.69,142.855 670.69,145.855 672.5,148.5C 672.517,150.565 672.85,152.565 673.5,154.5C 673.723,158.162 674.723,161.495 676.5,164.5C 676.507,168.554 677.84,171.887 680.5,174.5C 680.216,176.415 680.549,178.081 681.5,179.5C 681.41,182.152 682.076,184.485 683.5,186.5C 684.724,193.167 686.724,199.501 689.5,205.5C 689.5,205.833 689.5,206.167 689.5,206.5C 690.665,213.665 692.998,220.331 696.5,226.5C 696.5,227.167 696.833,227.5 697.5,227.5C 697.224,233.646 698.557,239.312 701.5,244.5C 701.833,244.5 702.167,244.5 702.5,244.5C 702.41,247.152 703.076,249.485 704.5,251.5C 704.366,253.292 704.699,254.958 705.5,256.5C 706.251,264.752 708.585,272.419 712.5,279.5C 712.528,282.916 713.528,285.916 715.5,288.5C 715.5,288.833 715.5,289.167 715.5,289.5C 715.723,293.162 716.723,296.495 718.5,299.5C 718.326,303.36 719.659,306.36 722.5,308.5C 722.5,309.833 722.5,311.167 722.5,312.5C 722.259,314.898 722.926,316.898 724.5,318.5C 724.833,318.5 725.167,318.5 725.5,318.5C 726.434,319.568 726.768,320.901 726.5,322.5C 726.366,324.292 726.699,325.958 727.5,327.5C 727.41,330.152 728.076,332.485 729.5,334.5C 729.414,335.496 729.748,336.329 730.5,337C 738.493,337.5 746.493,337.666 754.5,337.5C 754.5,352.5 754.5,367.5 754.5,382.5C 707.833,382.5 661.167,382.5 614.5,382.5C 614.5,367.833 614.5,353.167 614.5,338.5C 625.172,338.667 635.839,338.5 646.5,338C 648.078,335.661 647.745,333.828 645.5,332.5C 645.923,330.219 645.256,328.552 643.5,327.5C 643.5,326.833 643.5,326.167 643.5,325.5C 643.88,323.302 643.213,321.635 641.5,320.5C 641.103,317.554 640.103,314.887 638.5,312.5C 614.337,311.337 590.003,311.17 565.5,312C 563.993,315.69 562.993,319.524 562.5,323.5C 561.34,327.681 560.34,332.015 559.5,336.5C 568.349,336.174 577.016,336.507 585.5,337.5C 585.5,352.5 585.5,367.5 585.5,382.5C 548.5,382.5 511.5,382.5 474.5,382.5C 473.504,367.676 473.171,352.676 473.5,337.5C 481.507,337.666 489.507,337.5 497.5,337C 499.223,334.057 500.223,330.89 500.5,327.5C 502.411,323.767 503.744,319.767 504.5,315.5C 505.15,313.565 505.483,311.565 505.5,309.5C 505.5,309.167 505.5,308.833 505.5,308.5C 508.927,304.573 510.26,299.906 509.5,294.5C 509.833,294.5 510.167,294.5 510.5,294.5C 514.871,285.331 517.871,275.664 519.5,265.5C 520.15,263.565 520.483,261.565 520.5,259.5C 521.458,259.047 522.292,258.381 523,257.5C 523.696,254.522 524.196,251.522 524.5,248.5C 526.074,246.898 526.741,244.898 526.5,242.5C 527.693,242.03 528.36,241.03 528.5,239.5C 528.997,237.182 529.33,234.848 529.5,232.5C 531.411,228.767 532.744,224.767 533.5,220.5C 534.15,218.565 534.483,216.565 534.5,214.5C 536.204,211.744 537.537,208.744 538.5,205.5C 541.036,200.2 542.703,194.533 543.5,188.5C 543.5,187.833 543.5,187.167 543.5,186.5C 545.461,184.68 545.794,182.68 544.5,180.5C 540.702,179.517 536.702,179.183 532.5,179.5C 532.5,164.833 532.5,150.167 532.5,135.5C 577.168,135.333 621.835,135.5 666.5,136C 667.078,137.417 668.078,138.25 669.5,138.5 Z"/></g>
<g><path style="opacity:1" fill="#fefefe" d="M 929.5,139.5 C 934.331,141.293 939.331,142.626 944.5,143.5C 946.746,144.455 949.079,145.122 951.5,145.5C 951.973,146.906 952.973,147.573 954.5,147.5C 954.973,148.906 955.973,149.573 957.5,149.5C 958.167,149.833 958.833,150.167 959.5,150.5C 960.262,152.262 961.596,153.262 963.5,153.5C 964.833,155.5 966.5,157.167 968.5,158.5C 969.08,160.749 970.413,162.415 972.5,163.5C 972.738,165.404 973.738,166.738 975.5,167.5C 975.166,170.491 976.166,172.824 978.5,174.5C 978.232,176.099 978.566,177.432 979.5,178.5C 982.21,191.661 983.21,204.994 982.5,218.5C 980.132,220.956 979.132,223.956 979.5,227.5C 978.833,228.5 978.167,229.5 977.5,230.5C 973.252,237.418 967.919,243.418 961.5,248.5C 960.391,248.557 959.391,248.89 958.5,249.5C 956.973,249.427 955.973,250.094 955.5,251.5C 954.5,251.833 953.833,252.5 953.5,253.5C 949.376,254.529 945.376,255.863 941.5,257.5C 939.173,257.247 937.173,257.914 935.5,259.5C 937.917,261.107 940.584,262.107 943.5,262.5C 943.833,262.5 944.167,262.5 944.5,262.5C 946.509,264.065 948.843,265.065 951.5,265.5C 951.973,266.906 952.973,267.573 954.5,267.5C 954.842,268.338 955.508,268.672 956.5,268.5C 957.911,270.914 959.911,272.581 962.5,273.5C 963.5,274.833 964.5,276.167 965.5,277.5C 966.075,279.411 967.075,281.078 968.5,282.5C 969.449,284.777 970.782,286.777 972.5,288.5C 973.469,293.006 974.969,297.339 977,301.5C 977.172,308.346 977.672,315.013 978.5,321.5C 978.476,325.787 979.81,329.453 982.5,332.5C 984.696,334.545 987.03,334.878 989.5,333.5C 989.833,333.5 990.167,333.5 990.5,333.5C 993.297,333.033 994.631,331.367 994.5,328.5C 995.404,327.791 995.737,326.791 995.5,325.5C 996.117,325.389 996.617,325.056 997,324.5C 997.499,320.514 997.666,316.514 997.5,312.5C 1004.17,312.5 1010.83,312.5 1017.5,312.5C 1017.5,322.5 1017.5,332.5 1017.5,342.5C 1016.16,346.371 1015.33,350.371 1015,354.5C 1012.34,358.827 1010.5,363.494 1009.5,368.5C 1007.41,369.585 1006.08,371.251 1005.5,373.5C 1000.64,377.095 995.635,380.428 990.5,383.5C 988.302,383.875 986.302,384.542 984.5,385.5C 981.727,386.657 978.727,387.324 975.5,387.5C 968.833,387.5 962.167,387.5 955.5,387.5C 951.462,386.905 947.462,386.238 943.5,385.5C 941.898,383.926 939.898,383.259 937.5,383.5C 937.167,383.5 936.833,383.5 936.5,383.5C 934.491,381.935 932.157,380.935 929.5,380.5C 927.337,378.917 925.004,377.584 922.5,376.5C 921.738,374.738 920.404,373.738 918.5,373.5C 916.833,371.5 915.167,369.5 913.5,367.5C 912.774,364.712 911.107,362.712 908.5,361.5C 908.167,361.5 907.833,361.5 907.5,361.5C 907.5,360.833 907.5,360.167 907.5,359.5C 907.573,357.973 906.906,356.973 905.5,356.5C 905.573,354.973 904.906,353.973 903.5,353.5C 903.5,352.833 903.5,352.167 903.5,351.5C 903.88,349.302 903.213,347.635 901.5,346.5C 901.324,343.273 900.657,340.273 899.5,337.5C 899.5,335.167 899.5,332.833 899.5,330.5C 899.666,321.161 899.5,311.827 899,302.5C 898.768,301.263 898.268,300.263 897.5,299.5C 897.604,295.17 895.937,291.836 892.5,289.5C 892.5,287.5 891.5,286.5 889.5,286.5C 888.365,284.787 886.698,284.12 884.5,284.5C 884.158,283.662 883.492,283.328 882.5,283.5C 880.162,281.96 877.495,281.294 874.5,281.5C 870.434,280.178 866.267,280.178 862,281.5C 861.171,299.671 861.338,317.671 862.5,335.5C 869.087,337.461 876.087,338.128 883.5,337.5C 883.5,352.5 883.5,367.5 883.5,382.5C 845.833,382.5 808.167,382.5 770.5,382.5C 770.5,367.5 770.5,352.5 770.5,337.5C 777.255,338.123 783.588,337.456 789.5,335.5C 790.167,309.836 790.5,284.002 790.5,258C 790.5,231.825 789.833,205.991 788.5,180.5C 782.69,179.51 776.69,179.177 770.5,179.5C 770.5,164.833 770.5,150.167 770.5,135.5C 818.179,135.135 865.845,135.635 913.5,137C 918.659,138.42 923.992,139.254 929.5,139.5 Z"/></g>
<g><path style="opacity:1" fill="#5d5d5d" d="M 915.5,135.5 C 919.705,135.717 923.705,136.383 927.5,137.5C 923.21,137.802 919.21,137.136 915.5,135.5 Z"/></g>
<g><path style="opacity:1" fill="#636363" d="M 1140.5,179.5 C 1140.83,164.324 1140.5,149.324 1139.5,134.5C 1099.17,134.5 1058.83,134.5 1018.5,134.5C 1018.5,149.5 1018.5,164.5 1018.5,179.5C 1017.5,164.342 1017.17,149.009 1017.5,133.5C 1058.83,133.5 1100.17,133.5 1141.5,133.5C 1141.83,149.009 1141.5,164.342 1140.5,179.5 Z"/></g>
<g><path style="opacity:1" fill="#fefefe" d="M 1121.5,179.5 C 1121.42,180.93 1121.75,182.264 1122.5,183.5C 1124.52,185.284 1126.18,187.284 1127.5,189.5C 1129.45,196.07 1132.45,202.07 1136.5,207.5C 1136.5,211.175 1138.17,213.841 1141.5,215.5C 1142.34,215.842 1142.67,216.508 1142.5,217.5C 1143.17,219.833 1143.83,222.167 1144.5,224.5C 1144.62,227.578 1145.62,230.245 1147.5,232.5C 1148.51,234.544 1149.51,236.544 1150.5,238.5C 1150.47,241.199 1151.13,243.699 1152.5,246C 1155.93,246.638 1157.26,245.138 1156.5,241.5C 1157.74,239.351 1158.74,237.018 1159.5,234.5C 1162.16,228.877 1164.82,223.21 1167.5,217.5C 1168.17,215.5 1168.83,213.5 1169.5,211.5C 1170.17,211.167 1170.83,210.833 1171.5,210.5C 1172.67,209.486 1173.34,208.153 1173.5,206.5C 1176.67,203.968 1178.67,200.635 1179.5,196.5C 1179.33,195.508 1179.66,194.842 1180.5,194.5C 1184.09,190.196 1186.42,185.196 1187.5,179.5C 1181.5,179.5 1175.5,179.5 1169.5,179.5C 1169.5,164.833 1169.5,150.167 1169.5,135.5C 1200.5,135.5 1231.5,135.5 1262.5,135.5C 1262.5,150.167 1262.5,164.833 1262.5,179.5C 1256.31,179.177 1250.31,179.51 1244.5,180.5C 1244.17,181.5 1243.5,182.167 1242.5,182.5C 1235.63,193.035 1229.63,204.035 1224.5,215.5C 1222.59,216.486 1221.59,218.152 1221.5,220.5C 1220.56,222.05 1219.89,223.716 1219.5,225.5C 1219.17,225.5 1218.83,225.5 1218.5,225.5C 1213.51,231.78 1209.85,238.78 1207.5,246.5C 1207.17,246.5 1206.83,246.5 1206.5,246.5C 1203.44,249.962 1201.44,253.962 1200.5,258.5C 1196.64,261.535 1194.31,265.535 1193.5,270.5C 1190.35,272.124 1188.68,274.791 1188.5,278.5C 1187.89,279.391 1187.56,280.391 1187.5,281.5C 1186.83,281.833 1186.17,282.167 1185.5,282.5C 1184.07,283.78 1183.4,285.447 1183.5,287.5C 1181.59,288.486 1180.59,290.152 1180.5,292.5C 1179.88,292.611 1179.38,292.944 1179,293.5C 1178.17,308.339 1178.34,323.006 1179.5,337.5C 1185.31,338.49 1191.31,338.823 1197.5,338.5C 1197.5,353.167 1197.5,367.833 1197.5,382.5C 1160.5,382.5 1123.5,382.5 1086.5,382.5C 1086.33,368.163 1086.5,353.829 1087,339.5C 1092.93,338.852 1098.77,338.186 1104.5,337.5C 1105.83,330.532 1106.5,323.198 1106.5,315.5C 1106.5,307.992 1106.17,300.659 1105.5,293.5C 1104.83,293.167 1104.17,292.833 1103.5,292.5C 1102.89,290.566 1101.89,288.899 1100.5,287.5C 1100.57,285.973 1099.91,284.973 1098.5,284.5C 1097.66,284.158 1097.33,283.492 1097.5,282.5C 1096.53,279.9 1095.2,277.566 1093.5,275.5C 1093.17,275.5 1092.83,275.5 1092.5,275.5C 1092.5,274.833 1092.5,274.167 1092.5,273.5C 1092.57,271.973 1091.91,270.973 1090.5,270.5C 1090.57,268.973 1089.91,267.973 1088.5,267.5C 1087.17,265.5 1085.83,263.5 1084.5,261.5C 1084.44,260.391 1084.11,259.391 1083.5,258.5C 1083.57,256.973 1082.91,255.973 1081.5,255.5C 1081.57,253.973 1080.91,252.973 1079.5,252.5C 1079.57,250.973 1078.91,249.973 1077.5,249.5C 1077.41,247.152 1076.41,245.486 1074.5,244.5C 1074.57,242.973 1073.91,241.973 1072.5,241.5C 1072.44,240.391 1072.11,239.391 1071.5,238.5C 1071.26,236.596 1070.26,235.262 1068.5,234.5C 1067.92,231.669 1066.59,229.336 1064.5,227.5C 1063.53,224.9 1062.2,222.566 1060.5,220.5C 1059.66,220.158 1059.33,219.492 1059.5,218.5C 1059.57,216.973 1058.91,215.973 1057.5,215.5C 1057.17,215.5 1056.83,215.5 1056.5,215.5C 1056.5,214.833 1056.5,214.167 1056.5,213.5C 1056.26,211.596 1055.26,210.262 1053.5,209.5C 1053.25,207.033 1052.25,205.033 1050.5,203.5C 1050.17,203.5 1049.83,203.5 1049.5,203.5C 1049.5,202.833 1049.5,202.167 1049.5,201.5C 1049.57,199.973 1048.91,198.973 1047.5,198.5C 1047.57,196.973 1046.91,195.973 1045.5,195.5C 1045.57,193.973 1044.91,192.973 1043.5,192.5C 1043.57,190.973 1042.91,189.973 1041.5,189.5C 1041.57,187.973 1040.91,186.973 1039.5,186.5C 1039.67,185.508 1039.34,184.842 1038.5,184.5C 1038.26,182.596 1037.26,181.262 1035.5,180.5C 1030.36,179.512 1025.03,179.179 1019.5,179.5C 1019.5,164.833 1019.5,150.167 1019.5,135.5C 1059.17,135.5 1098.83,135.5 1138.5,135.5C 1138.5,149.833 1138.5,164.167 1138.5,178.5C 1132.64,178.178 1126.98,178.511 1121.5,179.5 Z"/></g>
<g><path style="opacity:1" fill="#5c5c5c" d="M 1405.5,133.5 C 1405.5,133.833 1405.5,134.167 1405.5,134.5C 1404.5,149.991 1404.17,165.658 1404.5,181.5C 1403.83,173.674 1403.5,165.674 1403.5,157.5C 1403.5,149.138 1404.17,141.138 1405.5,133.5 Z"/></g>
<g><path style="opacity:1" fill="#fefefe" d="M 1405.5,135.5 C 1444.17,135.5 1482.83,135.5 1521.5,135.5C 1521.5,150.5 1521.5,165.5 1521.5,180.5C 1514.25,180.187 1507.08,180.52 1500,181.5C 1499.17,233.002 1499.33,284.335 1500.5,335.5C 1507.09,337.461 1514.09,338.128 1521.5,337.5C 1521.5,352.5 1521.5,367.5 1521.5,382.5C 1482.83,382.5 1444.17,382.5 1405.5,382.5C 1405.5,367.5 1405.5,352.5 1405.5,337.5C 1413.09,337.814 1420.59,337.481 1428,336.5C 1428.17,310.667 1428.33,284.833 1428.5,259C 1428.5,232.825 1427.83,206.991 1426.5,181.5C 1419.69,180.509 1412.69,180.175 1405.5,180.5C 1405.5,165.5 1405.5,150.5 1405.5,135.5 Z"/></g>
<g><path style="opacity:1" fill="#fefefe" d="M 1726.5,225.5 C 1726.67,210.83 1726.5,196.163 1726,181.5C 1715.74,180.171 1705.57,180.171 1695.5,181.5C 1694.5,233.331 1694.17,285.331 1694.5,337.5C 1704.17,337.5 1713.83,337.5 1723.5,337.5C 1723.5,352.5 1723.5,367.5 1723.5,382.5C 1680.17,382.5 1636.83,382.5 1593.5,382.5C 1593.5,367.5 1593.5,352.5 1593.5,337.5C 1602.68,337.827 1611.68,337.493 1620.5,336.5C 1621.17,336.5 1621.5,336.167 1621.5,335.5C 1622.67,284.335 1622.83,233.002 1622,181.5C 1611.74,180.171 1601.57,180.171 1591.5,181.5C 1591.17,181.5 1590.83,181.5 1590.5,181.5C 1589.5,195.99 1589.17,210.657 1589.5,225.5C 1572.83,225.5 1556.17,225.5 1539.5,225.5C 1539.5,195.5 1539.5,165.5 1539.5,135.5C 1618.5,135.5 1697.5,135.5 1776.5,135.5C 1776.5,165.5 1776.5,195.5 1776.5,225.5C 1759.83,225.5 1743.17,225.5 1726.5,225.5 Z"/></g>
<g><path style="opacity:1" fill="#b4b4b4" d="M 205.5,134.5 C 205.5,149.833 205.5,165.167 205.5,180.5C 211.69,180.177 217.69,180.51 223.5,181.5C 217.167,181.5 210.833,181.5 204.5,181.5C 204.17,165.658 204.504,149.991 205.5,134.5 Z"/></g>
<g><path style="opacity:1" fill="#949494" d="M 319.5,134.5 C 320.496,149.991 320.83,165.658 320.5,181.5C 313.588,182.462 306.588,182.795 299.5,182.5C 298.503,199.659 298.17,216.992 298.5,234.5C 297.338,217.005 297.171,199.338 298,181.5C 305.079,180.52 312.245,180.187 319.5,180.5C 319.5,165.167 319.5,149.833 319.5,134.5 Z"/></g>
<g><path style="opacity:1" fill="#5f5f5f" d="M 667.5,134.5 C 622.167,134.5 576.833,134.5 531.5,134.5C 530.504,149.324 530.171,164.324 530.5,179.5C 529.504,164.342 529.17,149.009 529.5,133.5C 575.67,133.168 621.67,133.501 667.5,134.5 Z"/></g>
<g><path style="opacity:1" fill="#c2c2c2" d="M 1405.5,134.5 C 1405.5,134.833 1405.5,135.167 1405.5,135.5C 1405.5,150.5 1405.5,165.5 1405.5,180.5C 1412.69,180.175 1419.69,180.509 1426.5,181.5C 1419.17,181.5 1411.83,181.5 1404.5,181.5C 1404.17,165.658 1404.5,149.991 1405.5,134.5 Z"/></g>
<g><path style="opacity:1" fill="#5f5f5f" d="M 1538.5,134.5 C 1618.33,133.501 1698.33,133.167 1778.5,133.5C 1778.83,164.671 1778.5,195.671 1777.5,226.5C 1777.5,195.833 1777.5,165.167 1777.5,134.5C 1697.83,134.5 1618.17,134.5 1538.5,134.5 Z"/></g>
<g><path style="opacity:1" fill="#b5b5b5" d="M 929.5,139.5 C 929.5,139.167 929.5,138.833 929.5,138.5C 934.779,139.401 939.779,141.068 944.5,143.5C 939.331,142.626 934.331,141.293 929.5,139.5 Z"/></g>
<g><path style="opacity:1" fill="#767676" d="M 669.5,139.5 C 671.472,142.084 672.472,145.084 672.5,148.5C 670.69,145.855 669.69,142.855 669.5,139.5 Z"/></g>
<g><path style="opacity:1" fill="#585858" d="M 951.5,145.5 C 953.027,145.427 954.027,146.094 954.5,147.5C 952.973,147.573 951.973,146.906 951.5,145.5 Z"/></g>
<g><path style="opacity:1" fill="#686868" d="M 954.5,147.5 C 956.027,147.427 957.027,148.094 957.5,149.5C 955.973,149.573 954.973,148.906 954.5,147.5 Z"/></g>
<g><path style="opacity:1" fill="#575757" d="M 959.5,150.5 C 961.404,150.738 962.738,151.738 963.5,153.5C 961.596,153.262 960.262,152.262 959.5,150.5 Z"/></g>
<g><path style="opacity:1" fill="#636363" d="M 672.5,148.5 C 674.806,152.085 676.139,156.085 676.5,160.5C 675.5,158.5 674.5,156.5 673.5,154.5C 672.85,152.565 672.517,150.565 672.5,148.5 Z"/></g>
<g><path style="opacity:1" fill="#4b4b4b" d="M 963.5,153.5 C 966.167,154.167 967.833,155.833 968.5,158.5C 966.5,157.167 964.833,155.5 963.5,153.5 Z"/></g>
<g><path style="opacity:1" fill="#acacac" d="M 673.5,154.5 C 674.5,156.5 675.5,158.5 676.5,160.5C 677.434,161.568 677.768,162.901 677.5,164.5C 677.167,164.5 676.833,164.5 676.5,164.5C 674.723,161.495 673.723,158.162 673.5,154.5 Z"/></g>
<g><path style="opacity:1" fill="#7f7f7f" d="M 968.5,158.5 C 970.587,159.585 971.92,161.251 972.5,163.5C 970.413,162.415 969.08,160.749 968.5,158.5 Z"/></g>
<g><path style="opacity:1" fill="#727272" d="M 972.5,163.5 C 974.262,164.262 975.262,165.596 975.5,167.5C 973.738,166.738 972.738,165.404 972.5,163.5 Z"/></g>
<g><path style="opacity:1" fill="#b2b2b2" d="M 676.5,164.5 C 676.833,164.5 677.167,164.5 677.5,164.5C 677.5,164.833 677.5,165.167 677.5,165.5C 677.796,167.403 678.463,169.07 679.5,170.5C 680.434,171.568 680.768,172.901 680.5,174.5C 677.84,171.887 676.507,168.554 676.5,164.5 Z"/></g>
<g><path style="opacity:1" fill="#5c5c5c" d="M 677.5,165.5 C 679.213,166.635 679.88,168.302 679.5,170.5C 678.463,169.07 677.796,167.403 677.5,165.5 Z"/></g>
<g><path style="opacity:1" fill="#8f8f8f" d="M 975.5,167.5 C 977.065,169.509 978.065,171.843 978.5,174.5C 976.166,172.824 975.166,170.491 975.5,167.5 Z"/></g>
<g><path style="opacity:1" fill="#5e5e5e" d="M 978.5,174.5 C 980.818,176.185 981.818,178.519 981.5,181.5C 980.833,180.5 980.167,179.5 979.5,178.5C 978.566,177.432 978.232,176.099 978.5,174.5 Z"/></g>
<g><path style="opacity:1" fill="#636363" d="M 680.5,174.5 C 682.38,176.755 683.38,179.422 683.5,182.5C 682.833,181.5 682.167,180.5 681.5,179.5C 680.549,178.081 680.216,176.415 680.5,174.5 Z"/></g>
<g><path style="opacity:1" fill="#929292" d="M 1139.5,134.5 C 1140.5,149.324 1140.83,164.324 1140.5,179.5C 1134.99,180.167 1129.32,180.833 1123.5,181.5C 1125.78,183.683 1127.12,186.35 1127.5,189.5C 1126.18,187.284 1124.52,185.284 1122.5,183.5C 1121.75,182.264 1121.42,180.93 1121.5,179.5C 1127.5,179.5 1133.5,179.5 1139.5,179.5C 1139.5,164.5 1139.5,149.5 1139.5,134.5 Z"/></g>
<g><path style="opacity:1" fill="#808080" d="M 1264.5,134.5 C 1264.83,149.676 1264.5,164.676 1263.5,179.5C 1263.5,164.5 1263.5,149.5 1263.5,134.5C 1231.83,134.5 1200.17,134.5 1168.5,134.5C 1168.17,149.676 1168.5,164.676 1169.5,179.5C 1175.5,179.5 1181.5,179.5 1187.5,179.5C 1186.42,185.196 1184.09,190.196 1180.5,194.5C 1180.5,193.5 1180.5,192.5 1180.5,191.5C 1182.44,187.946 1184.11,184.279 1185.5,180.5C 1179.5,180.5 1173.5,180.5 1167.5,180.5C 1167.5,164.833 1167.5,149.167 1167.5,133.5C 1200,133.168 1232.34,133.502 1264.5,134.5 Z"/></g>
<g><path style="opacity:1" fill="#e8e8e8" d="M 861.5,180.5 C 861.17,200.674 861.503,220.674 862.5,240.5C 868.979,241.491 875.646,241.824 882.5,241.5C 875.432,242.827 868.265,242.827 861,241.5C 860.171,220.996 860.337,200.663 861.5,180.5 Z"/></g>
<g><path style="opacity:1" fill="#8d8d8d" d="M 889.5,182.5 C 889.5,182.167 889.5,181.833 889.5,181.5C 890.167,181.5 890.833,181.5 891.5,181.5C 893.403,181.796 895.07,182.463 896.5,183.5C 894.139,183.326 891.806,182.993 889.5,182.5 Z"/></g>
<g><path style="opacity:1" fill="#757575" d="M 204.5,181.5 C 210.833,181.5 217.167,181.5 223.5,181.5C 224.167,181.5 224.5,181.833 224.5,182.5C 224.832,233.669 224.499,284.669 223.5,335.5C 223.832,284.331 223.499,233.331 222.5,182.5C 216.31,182.823 210.31,182.49 204.5,181.5 Z"/></g>
<g><path style="opacity:1" fill="#c3c3c3" d="M 224.5,182.5 C 224.833,182.5 225.167,182.5 225.5,182.5C 225.667,233.834 225.5,285.168 225,336.5C 224.329,337.252 223.496,337.586 222.5,337.5C 222.5,337.167 222.5,336.833 222.5,336.5C 223.167,336.5 223.5,336.167 223.5,335.5C 224.499,284.669 224.832,233.669 224.5,182.5 Z"/></g>
<g><path style="opacity:1" fill="#a5a5a5" d="M 345.5,180.5 C 352.167,180.5 358.833,180.5 365.5,180.5C 366.824,198.598 366.824,216.598 365.5,234.5C 365.83,216.992 365.497,199.659 364.5,182.5C 358.167,181.833 351.833,181.167 345.5,180.5 Z"/></g>
<g><path style="opacity:1" fill="#7b7b7b" d="M 440.5,181.5 C 447.167,181.5 453.833,181.5 460.5,181.5C 454.355,182.49 448.022,182.823 441.5,182.5C 440.501,233.331 440.168,284.331 440.5,335.5C 440.167,335.5 439.833,335.5 439.5,335.5C 439.168,283.997 439.501,232.664 440.5,181.5 Z"/></g>
<g><path style="opacity:1" fill="#9c9c9c" d="M 681.5,179.5 C 682.167,180.5 682.833,181.5 683.5,182.5C 684.434,183.568 684.768,184.901 684.5,186.5C 684.167,186.5 683.833,186.5 683.5,186.5C 682.076,184.485 681.41,182.152 681.5,179.5 Z"/></g>
<g><path style="opacity:1" fill="#333333" d="M 768.5,180.5 C 768.833,180.5 769.167,180.5 769.5,180.5C 775.645,181.49 781.978,181.823 788.5,181.5C 788.5,232.833 788.5,284.167 788.5,335.5C 781.978,335.177 775.645,335.51 769.5,336.5C 769.167,336.5 768.833,336.5 768.5,336.5C 774.412,334.544 780.745,333.877 787.5,334.5C 787.5,283.833 787.5,233.167 787.5,182.5C 780.745,183.123 774.412,182.456 768.5,180.5 Z"/></g>
<g><path style="opacity:1" fill="#c7c7c7" d="M 769.5,180.5 C 775.833,180.5 782.167,180.5 788.5,180.5C 789.833,205.991 790.5,231.825 790.5,258C 790.5,284.002 790.167,309.836 789.5,335.5C 789.832,283.997 789.499,232.664 788.5,181.5C 781.978,181.823 775.645,181.49 769.5,180.5 Z"/></g>
<g><path style="opacity:1" fill="#c1c1c1" d="M 891.5,181.5 C 890.833,181.5 890.167,181.5 889.5,181.5C 888.833,181.5 888.167,181.5 887.5,181.5C 879.35,180.507 871.017,180.174 862.5,180.5C 862.5,200.5 862.5,220.5 862.5,240.5C 861.503,220.674 861.17,200.674 861.5,180.5C 870.657,179.342 879.991,179.176 889.5,180C 890.416,180.278 891.082,180.778 891.5,181.5 Z"/></g>
<g><path style="opacity:1" fill="#777777" d="M 887.5,181.5 C 879.5,181.5 871.5,181.5 863.5,181.5C 863.5,201.167 863.5,220.833 863.5,240.5C 871.167,240.5 878.833,240.5 886.5,240.5C 885.432,241.434 884.099,241.768 882.5,241.5C 875.646,241.824 868.979,241.491 862.5,240.5C 862.5,220.5 862.5,200.5 862.5,180.5C 871.017,180.174 879.35,180.507 887.5,181.5 Z"/></g>
<g><path style="opacity:0.971" fill="#010101" d="M 889.5,182.5 C 891.806,182.993 894.139,183.326 896.5,183.5C 896.973,184.906 897.973,185.573 899.5,185.5C 899.973,186.906 900.973,187.573 902.5,187.5C 903.5,187.833 904.167,188.5 904.5,189.5C 905.08,191.749 906.413,193.415 908.5,194.5C 909.455,196.746 910.122,199.079 910.5,201.5C 910.698,209.534 910.365,217.534 909.5,225.5C 908.11,226.899 907.11,228.566 906.5,230.5C 904.809,231.864 903.142,233.197 901.5,234.5C 898.9,235.468 896.566,236.801 894.5,238.5C 894.167,238.5 893.833,238.5 893.5,238.5C 891.435,238.517 889.435,238.85 887.5,239.5C 879.833,239.5 872.167,239.5 864.5,239.5C 864.5,220.5 864.5,201.5 864.5,182.5C 872.833,182.5 881.167,182.5 889.5,182.5 Z"/></g>
<g><path style="opacity:1" fill="#656565" d="M 1035.5,180.5 C 1037.26,181.262 1038.26,182.596 1038.5,184.5C 1036.74,183.738 1035.74,182.404 1035.5,180.5 Z"/></g>
<g><path style="opacity:1" fill="#393939" d="M 1404.5,181.5 C 1411.83,181.5 1419.17,181.5 1426.5,181.5C 1426.5,232.833 1426.5,284.167 1426.5,335.5C 1419.17,335.5 1411.83,335.5 1404.5,335.5C 1411.31,334.509 1418.31,334.175 1425.5,334.5C 1425.5,283.833 1425.5,233.167 1425.5,182.5C 1418.31,182.825 1411.31,182.491 1404.5,181.5 Z"/></g>
<g><path style="opacity:1" fill="#d3d3d3" d="M 1426.5,181.5 C 1427.83,206.991 1428.5,232.825 1428.5,259C 1428.33,284.833 1428.17,310.667 1428,336.5C 1420.59,337.481 1413.09,337.814 1405.5,337.5C 1412.5,336.833 1419.5,336.167 1426.5,335.5C 1426.5,284.167 1426.5,232.833 1426.5,181.5 Z"/></g>
<g><path style="opacity:1" fill="#cfcfcf" d="M 1405.5,135.5 C 1405.5,135.167 1405.5,134.833 1405.5,134.5C 1444.5,134.5 1483.5,134.5 1522.5,134.5C 1522.5,150.167 1522.5,165.833 1522.5,181.5C 1515.31,181.175 1508.31,181.509 1501.5,182.5C 1500.5,233.331 1500.17,284.331 1500.5,335.5C 1499.33,284.335 1499.17,233.002 1500,181.5C 1507.08,180.52 1514.25,180.187 1521.5,180.5C 1521.5,165.5 1521.5,150.5 1521.5,135.5C 1482.83,135.5 1444.17,135.5 1405.5,135.5 Z"/></g>
<g><path style="opacity:1" fill="#808080" d="M 1590.5,181.5 C 1590.83,181.5 1591.17,181.5 1591.5,181.5C 1601.35,181.173 1611.01,181.506 1620.5,182.5C 1611.17,182.5 1601.83,182.5 1592.5,182.5C 1591.83,197.167 1591.17,211.833 1590.5,226.5C 1590.5,211.5 1590.5,196.5 1590.5,181.5 Z"/></g>
<g><path style="opacity:1" fill="#494949" d="M 1695.5,181.5 C 1705.42,181.181 1715.25,181.514 1725,182.5C 1725.5,197.163 1725.67,211.83 1725.5,226.5C 1725.17,226.5 1724.83,226.5 1724.5,226.5C 1723.5,212.01 1723.17,197.343 1723.5,182.5C 1714.5,182.5 1705.5,182.5 1696.5,182.5C 1696.5,233.167 1696.5,283.833 1696.5,334.5C 1706.01,334.173 1715.35,334.506 1724.5,335.5C 1714.83,335.5 1705.17,335.5 1695.5,335.5C 1695.5,284.167 1695.5,232.833 1695.5,181.5 Z"/></g>
<g><path style="opacity:1" fill="#b3b3b3" d="M 1695.5,181.5 C 1705.57,180.171 1715.74,180.171 1726,181.5C 1726.5,196.163 1726.67,210.83 1726.5,225.5C 1743.33,226.497 1760.33,226.83 1777.5,226.5C 1777.5,226.833 1777.5,227.167 1777.5,227.5C 1759.99,227.83 1742.66,227.497 1725.5,226.5C 1725.67,211.83 1725.5,197.163 1725,182.5C 1715.25,181.514 1705.42,181.181 1695.5,181.5 Z"/></g>
<g><path style="opacity:1" fill="#292929" d="M 222.5,182.5 C 223.499,233.331 223.832,284.331 223.5,335.5C 217.167,335.5 210.833,335.5 204.5,335.5C 210.31,334.51 216.31,334.177 222.5,334.5C 222.5,283.833 222.5,233.167 222.5,182.5 Z"/></g>
<g><path style="opacity:1" fill="#242424" d="M 441.5,182.5 C 441.5,233.167 441.5,283.833 441.5,334.5C 448.022,334.177 454.355,334.51 460.5,335.5C 453.833,335.5 447.167,335.5 440.5,335.5C 440.168,284.331 440.501,233.331 441.5,182.5 Z"/></g>
<g><path style="opacity:1" fill="#2b2b2b" d="M 887.5,181.5 C 888.167,181.5 888.833,181.5 889.5,181.5C 889.5,181.833 889.5,182.167 889.5,182.5C 881.167,182.5 872.833,182.5 864.5,182.5C 864.5,201.5 864.5,220.5 864.5,239.5C 872.167,239.5 879.833,239.5 887.5,239.5C 887.5,239.833 887.5,240.167 887.5,240.5C 887.167,240.5 886.833,240.5 886.5,240.5C 878.833,240.5 871.167,240.5 863.5,240.5C 863.5,220.833 863.5,201.167 863.5,181.5C 871.5,181.5 879.5,181.5 887.5,181.5 Z"/></g>
<g><path style="opacity:1" fill="#363636" d="M 1592.5,182.5 C 1593.15,197.871 1592.48,212.871 1590.5,227.5C 1590.5,227.167 1590.5,226.833 1590.5,226.5C 1591.17,211.833 1591.83,197.167 1592.5,182.5 Z"/></g>
<g><path style="opacity:1" fill="#bfbfbf" d="M 1591.5,181.5 C 1601.57,180.171 1611.74,180.171 1622,181.5C 1622.83,233.002 1622.67,284.335 1621.5,335.5C 1621.83,284.331 1621.5,233.331 1620.5,182.5C 1611.01,181.506 1601.35,181.173 1591.5,181.5 Z"/></g>
<g><path style="opacity:1" fill="#7e7e7e" d="M 896.5,183.5 C 898.027,183.427 899.027,184.094 899.5,185.5C 897.973,185.573 896.973,184.906 896.5,183.5 Z"/></g>
<g><path style="opacity:1" fill="#979797" d="M 544.5,180.5 C 545.794,182.68 545.461,184.68 543.5,186.5C 543.5,185.833 543.5,185.167 543.5,184.5C 543.833,183.167 544.167,181.833 544.5,180.5 Z"/></g>
<g><path style="opacity:1" fill="#737373" d="M 899.5,185.5 C 901.027,185.427 902.027,186.094 902.5,187.5C 900.973,187.573 899.973,186.906 899.5,185.5 Z"/></g>
<g><path style="opacity:1" fill="#646464" d="M 543.5,184.5 C 543.5,185.167 543.5,185.833 543.5,186.5C 543.5,187.167 543.5,187.833 543.5,188.5C 542.833,189.5 542.167,190.5 541.5,191.5C 541.41,188.848 542.076,186.515 543.5,184.5 Z"/></g>
<g><path style="opacity:1" fill="#7c7c7c" d="M 1039.5,186.5 C 1040.91,186.973 1041.57,187.973 1041.5,189.5C 1040.09,189.027 1039.43,188.027 1039.5,186.5 Z"/></g>
<g><path style="opacity:1" fill="#b2b2b2" d="M 683.5,186.5 C 683.833,186.5 684.167,186.5 684.5,186.5C 684.595,188.786 685.262,190.786 686.5,192.5C 686.5,192.833 686.5,193.167 686.5,193.5C 686.796,195.403 687.463,197.07 688.5,198.5C 688.5,198.833 688.5,199.167 688.5,199.5C 689.15,201.435 689.483,203.435 689.5,205.5C 686.724,199.501 684.724,193.167 683.5,186.5 Z"/></g>
<g><path style="opacity:1" fill="#4e4e4e" d="M 684.5,186.5 C 686.074,188.102 686.741,190.102 686.5,192.5C 685.262,190.786 684.595,188.786 684.5,186.5 Z"/></g>
<g><path style="opacity:1" fill="#898989" d="M 1041.5,189.5 C 1042.91,189.973 1043.57,190.973 1043.5,192.5C 1042.09,192.027 1041.43,191.027 1041.5,189.5 Z"/></g>
<g><path style="opacity:1" fill="#616161" d="M 904.5,189.5 C 906.587,190.585 907.92,192.251 908.5,194.5C 906.413,193.415 905.08,191.749 904.5,189.5 Z"/></g>
<g><path style="opacity:1" fill="#848484" d="M 1127.5,189.5 C 1131.02,194.534 1134.02,199.867 1136.5,205.5C 1136.5,206.167 1136.5,206.833 1136.5,207.5C 1132.45,202.07 1129.45,196.07 1127.5,189.5 Z"/></g>
<g><path style="opacity:1" fill="#979797" d="M 1043.5,192.5 C 1044.91,192.973 1045.57,193.973 1045.5,195.5C 1044.09,195.027 1043.43,194.027 1043.5,192.5 Z"/></g>
<g><path style="opacity:1" fill="#9d9d9d" d="M 604.5,198.5 C 603.348,197.375 602.348,197.375 601.5,198.5C 601.167,198.5 600.833,198.5 600.5,198.5C 600.5,197.167 600.5,195.833 600.5,194.5C 601.833,194.5 603.167,194.5 604.5,194.5C 604.5,195.833 604.5,197.167 604.5,198.5 Z"/></g>
<g><path style="opacity:1" fill="#4a4a4a" d="M 686.5,193.5 C 688.213,194.635 688.88,196.302 688.5,198.5C 687.463,197.07 686.796,195.403 686.5,193.5 Z"/></g>
<g><path style="opacity:1" fill="#9e9e9e" d="M 908.5,194.5 C 909.75,194.577 910.583,195.244 911,196.5C 911.494,198.134 911.66,199.801 911.5,201.5C 911.167,201.5 910.833,201.5 910.5,201.5C 910.122,199.079 909.455,196.746 908.5,194.5 Z"/></g>
<g><path style="opacity:1" fill="#a6a6a6" d="M 1045.5,195.5 C 1046.91,195.973 1047.57,196.973 1047.5,198.5C 1046.83,198.167 1046.17,197.833 1045.5,197.5C 1045.5,196.833 1045.5,196.167 1045.5,195.5 Z"/></g>
<g><path style="opacity:1" fill="#a4a4a4" d="M 1242.5,182.5 C 1240.6,188.531 1237.93,194.197 1234.5,199.5C 1232.8,201.566 1231.47,203.9 1230.5,206.5C 1229.66,206.842 1229.33,207.508 1229.5,208.5C 1228.09,208.973 1227.43,209.973 1227.5,211.5C 1227.26,213.404 1226.26,214.738 1224.5,215.5C 1229.63,204.035 1235.63,193.035 1242.5,182.5 Z"/></g>
<g><path style="opacity:1" fill="#444444" d="M 1045.5,197.5 C 1046.17,197.833 1046.83,198.167 1047.5,198.5C 1047.5,199.167 1047.5,199.833 1047.5,200.5C 1046.09,200.027 1045.43,199.027 1045.5,197.5 Z"/></g>
<g><path style="opacity:1" fill="#cfcfcf" d="M 543.5,188.5 C 542.703,194.533 541.036,200.2 538.5,205.5C 539.761,201.626 540.428,197.626 540.5,193.5C 540.833,192.833 541.167,192.167 541.5,191.5C 542.167,190.5 542.833,189.5 543.5,188.5 Z"/></g>
<g><path style="opacity:1" fill="#030303" d="M 600.5,198.5 C 600.833,198.5 601.167,198.5 601.5,198.5C 603.1,200.703 604.433,203.036 605.5,205.5C 605.932,206.71 606.599,207.71 607.5,208.5C 607.5,209.167 607.5,209.833 607.5,210.5C 607.5,211.167 607.5,211.833 607.5,212.5C 607.861,216.915 609.194,220.915 611.5,224.5C 611.41,227.152 612.076,229.485 613.5,231.5C 613.402,233.553 614.069,235.22 615.5,236.5C 615.402,238.553 616.069,240.22 617.5,241.5C 617.629,243.216 617.962,244.883 618.5,246.5C 618.171,249.228 618.837,251.562 620.5,253.5C 620.402,255.553 621.069,257.22 622.5,258.5C 623.038,260.117 623.371,261.784 623.5,263.5C 623.366,265.292 623.699,266.958 624.5,268.5C 610.167,268.5 595.833,268.5 581.5,268.5C 581.5,267.5 581.5,266.5 581.5,265.5C 583.158,260.213 584.825,254.88 586.5,249.5C 587.167,246.833 587.833,244.167 588.5,241.5C 589.924,239.485 590.59,237.152 590.5,234.5C 591.508,231.156 592.508,227.823 593.5,224.5C 595.265,221.877 595.932,218.877 595.5,215.5C 598.58,210.315 600.247,204.649 600.5,198.5 Z"/></g>
<g><path style="opacity:1" fill="#aeaeae" d="M 1047.5,198.5 C 1048.91,198.973 1049.57,199.973 1049.5,201.5C 1048.83,201.167 1048.17,200.833 1047.5,200.5C 1047.5,199.833 1047.5,199.167 1047.5,198.5 Z"/></g>
<g><path style="opacity:1" fill="#d3d3d3" d="M 1179.5,196.5 C 1178.67,200.635 1176.67,203.968 1173.5,206.5C 1173.5,205.833 1173.5,205.167 1173.5,204.5C 1175.91,202.094 1177.91,199.428 1179.5,196.5 Z"/></g>
<g><path style="opacity:1" fill="#3c3c3c" d="M 601.5,198.5 C 602.348,197.375 603.348,197.375 604.5,198.5C 604.629,200.216 604.962,201.883 605.5,203.5C 605.5,204.167 605.5,204.833 605.5,205.5C 604.433,203.036 603.1,200.703 601.5,198.5 Z"/></g>
<g><path style="opacity:1" fill="#4f4f4f" d="M 1047.5,200.5 C 1048.17,200.833 1048.83,201.167 1049.5,201.5C 1049.5,202.167 1049.5,202.833 1049.5,203.5C 1048.09,203.027 1047.43,202.027 1047.5,200.5 Z"/></g>
<g><path style="opacity:1" fill="#585858" d="M 1180.5,191.5 C 1180.5,192.5 1180.5,193.5 1180.5,194.5C 1179.66,194.842 1179.33,195.508 1179.5,196.5C 1177.91,199.428 1175.91,202.094 1173.5,204.5C 1175.28,199.815 1177.61,195.482 1180.5,191.5 Z"/></g>
<g><path style="opacity:1" fill="#303030" d="M 1234.5,199.5 C 1234.28,202.546 1232.94,204.879 1230.5,206.5C 1231.47,203.9 1232.8,201.566 1234.5,199.5 Z"/></g>
<g><path style="opacity:1" fill="#a7a7a7" d="M 605.5,203.5 C 607.256,204.552 607.923,206.219 607.5,208.5C 606.599,207.71 605.932,206.71 605.5,205.5C 605.5,204.833 605.5,204.167 605.5,203.5 Z"/></g>
<g><path style="opacity:1" fill="#979797" d="M 979.5,178.5 C 980.167,179.5 980.833,180.5 981.5,181.5C 984.438,193.197 985.272,205.197 984,217.5C 983.617,218.056 983.117,218.389 982.5,218.5C 983.21,204.994 982.21,191.661 979.5,178.5 Z"/></g>
<g><path style="opacity:1" fill="#5a5a5a" d="M 688.5,199.5 C 689.117,199.611 689.617,199.944 690,200.5C 691.277,205.493 692.444,210.493 693.5,215.5C 692.167,212.5 690.833,209.5 689.5,206.5C 689.5,206.167 689.5,205.833 689.5,205.5C 689.483,203.435 689.15,201.435 688.5,199.5 Z"/></g>
<g><path style="opacity:1" fill="#474747" d="M 1136.5,205.5 C 1137.91,205.973 1138.57,206.973 1138.5,208.5C 1137.83,208.167 1137.17,207.833 1136.5,207.5C 1136.5,206.833 1136.5,206.167 1136.5,205.5 Z"/></g>
<g><path style="opacity:1" fill="#888888" d="M 540.5,193.5 C 540.428,197.626 539.761,201.626 538.5,205.5C 537.537,208.744 536.204,211.744 534.5,214.5C 536.187,207.306 538.187,200.306 540.5,193.5 Z"/></g>
<g><path style="opacity:1" fill="#838383" d="M 1050.5,203.5 C 1052.25,205.033 1053.25,207.033 1053.5,209.5C 1051.75,207.967 1050.75,205.967 1050.5,203.5 Z"/></g>
<g><path style="opacity:1" fill="#b9b9b9" d="M 689.5,206.5 C 690.833,209.5 692.167,212.5 693.5,215.5C 694.8,219.096 695.8,222.763 696.5,226.5C 692.998,220.331 690.665,213.665 689.5,206.5 Z"/></g>
<g><path style="opacity:1" fill="#2c2c2c" d="M 910.5,201.5 C 910.833,201.5 911.167,201.5 911.5,201.5C 911.5,207.5 911.5,213.5 911.5,219.5C 911.405,221.786 910.738,223.786 909.5,225.5C 910.365,217.534 910.698,209.534 910.5,201.5 Z"/></g>
<g><path style="opacity:1" fill="#9c9c9c" d="M 1173.5,206.5 C 1173.34,208.153 1172.67,209.486 1171.5,210.5C 1171.5,209.833 1171.5,209.167 1171.5,208.5C 1171.5,207.167 1172.17,206.5 1173.5,206.5 Z"/></g>
<g><path style="opacity:1" fill="#4d4d4d" d="M 1171.5,208.5 C 1171.5,209.167 1171.5,209.833 1171.5,210.5C 1170.83,210.833 1170.17,211.167 1169.5,211.5C 1169.43,209.973 1170.09,208.973 1171.5,208.5 Z"/></g>
<g><path style="opacity:1" fill="#494949" d="M 1229.5,208.5 C 1229.57,210.027 1228.91,211.027 1227.5,211.5C 1227.43,209.973 1228.09,208.973 1229.5,208.5 Z"/></g>
<g><path style="opacity:1" fill="#ababab" d="M 607.5,210.5 C 609.821,212.09 610.821,214.423 610.5,217.5C 609.313,215.928 608.313,214.261 607.5,212.5C 607.5,211.833 607.5,211.167 607.5,210.5 Z"/></g>
<g><path style="opacity:1" fill="#8d8d8d" d="M 1053.5,209.5 C 1055.26,210.262 1056.26,211.596 1056.5,213.5C 1055.83,213.167 1055.17,212.833 1054.5,212.5C 1053.89,211.609 1053.56,210.609 1053.5,209.5 Z"/></g>
<g><path style="opacity:1" fill="#b8b8b8" d="M 1136.5,207.5 C 1137.17,207.833 1137.83,208.167 1138.5,208.5C 1138.5,208.833 1138.5,209.167 1138.5,209.5C 1138.43,211.027 1139.09,212.027 1140.5,212.5C 1141.11,213.391 1141.44,214.391 1141.5,215.5C 1138.17,213.841 1136.5,211.175 1136.5,207.5 Z"/></g>
<g><path style="opacity:1" fill="#505050" d="M 1138.5,209.5 C 1139.91,209.973 1140.57,210.973 1140.5,212.5C 1139.09,212.027 1138.43,211.027 1138.5,209.5 Z"/></g>
<g><path style="opacity:1" fill="#7a7a7a" d="M 600.5,198.5 C 600.247,204.649 598.58,210.315 595.5,215.5C 596.933,209.67 598.599,204.003 600.5,198.5 Z"/></g>
<g><path style="opacity:1" fill="#474747" d="M 1054.5,212.5 C 1055.17,212.833 1055.83,213.167 1056.5,213.5C 1056.5,214.167 1056.5,214.833 1056.5,215.5C 1055.09,215.027 1054.43,214.027 1054.5,212.5 Z"/></g>
<g><path style="opacity:1" fill="#7e7e7e" d="M 911.5,201.5 C 913.03,204.695 913.696,208.195 913.5,212C 913.497,214.69 913.164,217.19 912.5,219.5C 912.167,219.5 911.833,219.5 911.5,219.5C 911.5,213.5 911.5,207.5 911.5,201.5 Z"/></g>
<g><path style="opacity:1" fill="#a2a2a2" d="M 1057.5,215.5 C 1058.91,215.973 1059.57,216.973 1059.5,218.5C 1058.09,218.027 1057.43,217.027 1057.5,215.5 Z"/></g>
<g><path style="opacity:1" fill="#6f6f6f" d="M 534.5,214.5 C 534.483,216.565 534.15,218.565 533.5,220.5C 533.167,220.5 532.833,220.5 532.5,220.5C 532.259,218.102 532.926,216.102 534.5,214.5 Z"/></g>
<g><path style="opacity:1" fill="#5f5f5f" d="M 1142.5,217.5 C 1145.11,220.632 1146.78,224.299 1147.5,228.5C 1146.14,227.41 1145.14,226.076 1144.5,224.5C 1143.83,222.167 1143.17,219.833 1142.5,217.5 Z"/></g>
<g><path style="opacity:1" fill="#747474" d="M 1167.5,217.5 C 1164.82,223.21 1162.16,228.877 1159.5,234.5C 1160.54,230.882 1161.7,227.215 1163,223.5C 1163.88,220.986 1165.38,218.986 1167.5,217.5 Z"/></g>
<g><path style="opacity:1" fill="#999999" d="M 1224.5,215.5 C 1224.11,217.284 1223.44,218.95 1222.5,220.5C 1222.17,220.5 1221.83,220.5 1221.5,220.5C 1221.59,218.152 1222.59,216.486 1224.5,215.5 Z"/></g>
<g><path style="opacity:1" fill="#474747" d="M 607.5,212.5 C 608.313,214.261 609.313,215.928 610.5,217.5C 610.5,217.833 610.5,218.167 610.5,218.5C 611.15,220.435 611.483,222.435 611.5,224.5C 609.194,220.915 607.861,216.915 607.5,212.5 Z"/></g>
<g><path style="opacity:1" fill="#bbbbbb" d="M 610.5,218.5 C 612.554,221.008 613.554,224.008 613.5,227.5C 612.833,226.5 612.167,225.5 611.5,224.5C 611.483,222.435 611.15,220.435 610.5,218.5 Z"/></g>
<g><path style="opacity:1" fill="#565656" d="M 595.5,215.5 C 595.932,218.877 595.265,221.877 593.5,224.5C 593.674,222.139 594.007,219.806 594.5,217.5C 594.328,216.508 594.662,215.842 595.5,215.5 Z"/></g>
<g><path style="opacity:1" fill="#b5b5b5" d="M 982.5,218.5 C 982.5,219.833 982.5,221.167 982.5,222.5C 980.787,223.635 980.12,225.302 980.5,227.5C 980.167,227.5 979.833,227.5 979.5,227.5C 979.132,223.956 980.132,220.956 982.5,218.5 Z"/></g>
<g><path style="opacity:1" fill="#5d5d5d" d="M 982.5,222.5 C 982.204,224.403 981.537,226.07 980.5,227.5C 980.12,225.302 980.787,223.635 982.5,222.5 Z"/></g>
<g><path style="opacity:1" fill="#383838" d="M 1221.5,220.5 C 1221.83,220.5 1222.17,220.5 1222.5,220.5C 1222.41,222.848 1221.41,224.514 1219.5,225.5C 1219.89,223.716 1220.56,222.05 1221.5,220.5 Z"/></g>
<g><path style="opacity:1" fill="#7b7b7b" d="M 1060.5,220.5 C 1062.2,222.566 1063.53,224.9 1064.5,227.5C 1062.06,225.879 1060.72,223.546 1060.5,220.5 Z"/></g>
<g><path style="opacity:1" fill="#e0e0e0" d="M 1590.5,181.5 C 1590.5,196.5 1590.5,211.5 1590.5,226.5C 1573.33,226.83 1556.33,226.497 1539.5,225.5C 1556.17,225.5 1572.83,225.5 1589.5,225.5C 1589.17,210.657 1589.5,195.99 1590.5,181.5 Z"/></g>
<g><path style="opacity:1" fill="#a7a7a7" d="M 911.5,219.5 C 911.833,219.5 912.167,219.5 912.5,219.5C 912.739,224.495 910.739,228.162 906.5,230.5C 907.11,228.566 908.11,226.899 909.5,225.5C 910.738,223.786 911.405,221.786 911.5,219.5 Z"/></g>
<g><path style="opacity:1" fill="#4b4b4b" d="M 611.5,224.5 C 612.167,225.5 612.833,226.5 613.5,227.5C 613.5,228.833 613.5,230.167 613.5,231.5C 612.076,229.485 611.41,227.152 611.5,224.5 Z"/></g>
<g><path style="opacity:1" fill="#c6c6c6" d="M 1144.5,224.5 C 1145.14,226.076 1146.14,227.41 1147.5,228.5C 1147.5,229.833 1147.5,231.167 1147.5,232.5C 1145.62,230.245 1144.62,227.578 1144.5,224.5 Z"/></g>
<g><path style="opacity:1" fill="#2b2b2b" d="M 1724.5,226.5 C 1724.83,226.5 1725.17,226.5 1725.5,226.5C 1742.66,227.497 1759.99,227.83 1777.5,227.5C 1768.84,228.166 1760.01,228.5 1751,228.5C 1741.81,228.498 1732.97,227.832 1724.5,226.5 Z"/></g>
<g><path style="opacity:1" fill="#a6a6a6" d="M 532.5,220.5 C 532.833,220.5 533.167,220.5 533.5,220.5C 532.744,224.767 531.411,228.767 529.5,232.5C 530.09,228.397 531.09,224.397 532.5,220.5 Z"/></g>
<g><path style="opacity:1" fill="#a3a3a3" d="M 594.5,217.5 C 594.007,219.806 593.674,222.139 593.5,224.5C 592.508,227.823 591.508,231.156 590.5,234.5C 590.167,234.5 589.833,234.5 589.5,234.5C 590.412,228.502 592.078,222.835 594.5,217.5 Z"/></g>
<g><path style="opacity:1" fill="#585858" d="M 979.5,227.5 C 979.833,227.5 980.167,227.5 980.5,227.5C 980.25,229.674 979.25,231.341 977.5,232.5C 977.5,231.833 977.5,231.167 977.5,230.5C 978.167,229.5 978.833,228.5 979.5,227.5 Z"/></g>
<g><path style="opacity:1" fill="#5a5a5a" d="M 1064.5,227.5 C 1066.59,229.336 1067.92,231.669 1068.5,234.5C 1065.93,232.973 1064.6,230.639 1064.5,227.5 Z"/></g>
<g><path style="opacity:1" fill="#979797" d="M 906.5,230.5 C 906.033,233.297 904.367,234.631 901.5,234.5C 903.142,233.197 904.809,231.864 906.5,230.5 Z"/></g>
<g><path style="opacity:1" fill="#808080" d="M 613.5,227.5 C 614.404,228.209 614.737,229.209 614.5,230.5C 615.15,232.435 615.483,234.435 615.5,236.5C 614.069,235.22 613.402,233.553 613.5,231.5C 613.5,230.167 613.5,228.833 613.5,227.5 Z"/></g>
<g><path style="opacity:1" fill="#a0a0a0" d="M 1218.5,225.5 C 1215.08,232.677 1211.41,239.677 1207.5,246.5C 1209.85,238.78 1213.51,231.78 1218.5,225.5 Z"/></g>
<g><path style="opacity:1" fill="#626262" d="M 299.5,182.5 C 299.5,199.5 299.5,216.5 299.5,233.5C 320.994,234.497 342.66,234.831 364.5,234.5C 364.5,217.167 364.5,199.833 364.5,182.5C 365.497,199.659 365.83,216.992 365.5,234.5C 343.167,235.833 320.833,235.833 298.5,234.5C 298.17,216.992 298.503,199.659 299.5,182.5 Z M 330.5,203.5 C 329.047,205.229 327.047,206.229 324.5,206.5C 323.571,207.689 323.238,209.022 323.5,210.5C 329.093,210.193 334.593,210.527 340,211.5C 340.495,209.527 340.662,207.527 340.5,205.5C 337.068,205.243 333.734,204.576 330.5,203.5 Z"/></g>
<g><path style="opacity:1" fill="#161616" d="M 363.5,182.5 C 363.833,182.5 364.167,182.5 364.5,182.5C 364.5,199.833 364.5,217.167 364.5,234.5C 342.66,234.831 320.994,234.497 299.5,233.5C 320.833,233.5 342.167,233.5 363.5,233.5C 363.5,216.5 363.5,199.5 363.5,182.5 Z"/></g>
<g><path style="opacity:1" fill="#a8a8a8" d="M 697.5,227.5 C 698.451,228.919 698.784,230.585 698.5,232.5C 698.796,234.403 699.463,236.07 700.5,237.5C 700.993,239.806 701.326,242.139 701.5,244.5C 698.557,239.312 697.224,233.646 697.5,227.5 Z"/></g>
<g><path style="opacity:1" fill="#535353" d="M 698.5,232.5 C 700.213,233.635 700.88,235.302 700.5,237.5C 699.463,236.07 698.796,234.403 698.5,232.5 Z"/></g>
<g><path style="opacity:1" fill="#878787" d="M 1147.5,228.5 C 1148.87,230.936 1149.87,233.603 1150.5,236.5C 1150.5,237.167 1150.5,237.833 1150.5,238.5C 1149.51,236.544 1148.51,234.544 1147.5,232.5C 1147.5,231.167 1147.5,229.833 1147.5,228.5 Z"/></g>
<g><path style="opacity:1" fill="#8d8d8d" d="M 1068.5,234.5 C 1070.26,235.262 1071.26,236.596 1071.5,238.5C 1070.5,237.833 1069.5,237.167 1068.5,236.5C 1068.5,235.833 1068.5,235.167 1068.5,234.5 Z"/></g>
<g><path style="opacity:1" fill="#bbbbbb" d="M 589.5,234.5 C 589.007,236.806 588.674,239.139 588.5,241.5C 587.833,241.833 587.167,242.167 586.5,242.5C 586.903,239.514 587.903,236.848 589.5,234.5 Z"/></g>
<g><path style="opacity:1" fill="#4e4e4e" d="M 589.5,234.5 C 589.833,234.5 590.167,234.5 590.5,234.5C 590.59,237.152 589.924,239.485 588.5,241.5C 588.674,239.139 589.007,236.806 589.5,234.5 Z"/></g>
<g><path style="opacity:1" fill="#b2b2b2" d="M 614.5,230.5 C 615.117,230.611 615.617,230.944 616,231.5C 616.826,234.793 617.326,238.126 617.5,241.5C 616.069,240.22 615.402,238.553 615.5,236.5C 615.483,234.435 615.15,232.435 614.5,230.5 Z"/></g>
<g><path style="opacity:1" fill="#6e6e6e" d="M 901.5,234.5 C 899.879,236.942 897.546,238.275 894.5,238.5C 896.566,236.801 898.9,235.468 901.5,234.5 Z"/></g>
<g><path style="opacity:1" fill="#7a7a7a" d="M 1159.5,234.5 C 1158.74,237.018 1157.74,239.351 1156.5,241.5C 1156.18,238.423 1157.18,236.09 1159.5,234.5 Z"/></g>
<g><path style="opacity:1" fill="#404040" d="M 1068.5,236.5 C 1069.5,237.167 1070.5,237.833 1071.5,238.5C 1072.11,239.391 1072.44,240.391 1072.5,241.5C 1070.41,240.415 1069.08,238.749 1068.5,236.5 Z"/></g>
<g><path style="opacity:1" fill="#404040" d="M 1150.5,236.5 C 1152.31,238.385 1153.48,240.719 1154,243.5C 1154.38,242.944 1154.88,242.611 1155.5,242.5C 1155.18,244.048 1154.18,244.715 1152.5,244.5C 1152.41,242.214 1151.74,240.214 1150.5,238.5C 1150.5,237.833 1150.5,237.167 1150.5,236.5 Z"/></g>
<g><path style="opacity:1" fill="#818181" d="M 893.5,238.5 C 891.898,240.074 889.898,240.741 887.5,240.5C 887.5,240.167 887.5,239.833 887.5,239.5C 889.435,238.85 891.435,238.517 893.5,238.5 Z"/></g>
<g><path style="opacity:1" fill="#bbbbbb" d="M 529.5,232.5 C 529.33,234.848 528.997,237.182 528.5,239.5C 528.36,241.03 527.693,242.03 526.5,242.5C 526.5,241.167 526.5,239.833 526.5,238.5C 527.203,236.371 528.203,234.371 529.5,232.5 Z"/></g>
<g><path style="opacity:1" fill="#7d7d7d" d="M 977.5,230.5 C 977.5,231.167 977.5,231.833 977.5,232.5C 973.812,239.522 968.479,244.855 961.5,248.5C 967.919,243.418 973.252,237.418 977.5,230.5 Z"/></g>
<g><path style="opacity:1" fill="#737373" d="M 1072.5,241.5 C 1073.91,241.973 1074.57,242.973 1074.5,244.5C 1073.09,244.027 1072.43,243.027 1072.5,241.5 Z"/></g>
<g><path style="opacity:1" fill="#8f8f8f" d="M 526.5,238.5 C 526.5,239.833 526.5,241.167 526.5,242.5C 526.741,244.898 526.074,246.898 524.5,248.5C 524.753,244.96 525.419,241.627 526.5,238.5 Z"/></g>
<g><path style="opacity:1" fill="#aaaaaa" d="M 1150.5,238.5 C 1151.74,240.214 1152.41,242.214 1152.5,244.5C 1154.18,244.715 1155.18,244.048 1155.5,242.5C 1155.5,241.833 1155.83,241.5 1156.5,241.5C 1157.26,245.138 1155.93,246.638 1152.5,246C 1151.13,243.699 1150.47,241.199 1150.5,238.5 Z"/></g>
<g><path style="opacity:1" fill="#878787" d="M 588.5,241.5 C 587.833,244.167 587.167,246.833 586.5,249.5C 586.167,249.5 585.833,249.5 585.5,249.5C 585.448,247.097 585.781,244.764 586.5,242.5C 587.167,242.167 587.833,241.833 588.5,241.5 Z"/></g>
<g><path style="opacity:1" fill="#727272" d="M 702.5,244.5 C 703.924,246.515 704.59,248.848 704.5,251.5C 703.076,249.485 702.41,247.152 702.5,244.5 Z"/></g>
<g><path style="opacity:1" fill="#bcbcbc" d="M 619.5,247.5 C 620.586,247.62 621.253,248.287 621.5,249.5C 622.302,252.449 622.636,255.449 622.5,258.5C 621.069,257.22 620.402,255.553 620.5,253.5C 620.483,251.435 620.15,249.435 619.5,247.5 Z"/></g>
<g><path style="opacity:1" fill="#818181" d="M 1074.5,244.5 C 1076.41,245.486 1077.41,247.152 1077.5,249.5C 1075.75,248.341 1074.75,246.674 1074.5,244.5 Z"/></g>
<g><path style="opacity:1" fill="#5c5c5c" d="M 618.5,246.5 C 619.167,246.5 619.5,246.833 619.5,247.5C 620.15,249.435 620.483,251.435 620.5,253.5C 618.837,251.562 618.171,249.228 618.5,246.5 Z"/></g>
<g><path style="opacity:1" fill="#636363" d="M 961.5,248.5 C 960.738,250.262 959.404,251.262 957.5,251.5C 957.833,250.833 958.167,250.167 958.5,249.5C 959.391,248.89 960.391,248.557 961.5,248.5 Z"/></g>
<g><path style="opacity:1" fill="#acacac" d="M 958.5,249.5 C 958.167,250.167 957.833,250.833 957.5,251.5C 957.167,251.5 956.833,251.5 956.5,251.5C 956.167,251.5 955.833,251.5 955.5,251.5C 955.973,250.094 956.973,249.427 958.5,249.5 Z"/></g>
<g><path style="opacity:1" fill="#808080" d="M 1077.5,249.5 C 1078.91,249.973 1079.57,250.973 1079.5,252.5C 1078.09,252.027 1077.43,251.027 1077.5,249.5 Z"/></g>
<g><path style="opacity:1" fill="#606060" d="M 955.5,251.5 C 955.833,251.5 956.167,251.5 956.5,251.5C 956.027,252.906 955.027,253.573 953.5,253.5C 953.833,252.5 954.5,251.833 955.5,251.5 Z"/></g>
<g><path style="opacity:1" fill="#9b9b9b" d="M 1206.5,246.5 C 1205.01,250.818 1203.01,254.818 1200.5,258.5C 1201.44,253.962 1203.44,249.962 1206.5,246.5 Z"/></g>
<g><path style="opacity:1" fill="#909090" d="M 1079.5,252.5 C 1080.91,252.973 1081.57,253.973 1081.5,255.5C 1080.09,255.027 1079.43,254.027 1079.5,252.5 Z"/></g>
<g><path style="opacity:1" fill="#515151" d="M 704.5,251.5 C 706.785,254.335 708.118,257.668 708.5,261.5C 707.313,259.928 706.313,258.261 705.5,256.5C 704.699,254.958 704.366,253.292 704.5,251.5 Z"/></g>
<g><path style="opacity:1" fill="#969696" d="M 524.5,248.5 C 524.196,251.522 523.696,254.522 523,257.5C 522.292,258.381 521.458,259.047 520.5,259.5C 521.505,256.279 522.339,252.946 523,249.5C 523.383,248.944 523.883,248.611 524.5,248.5 Z"/></g>
<g><path style="opacity:1" fill="#6d6d6d" d="M 941.5,257.5 C 941.5,257.833 941.5,258.167 941.5,258.5C 940.325,258.281 939.325,258.614 938.5,259.5C 940.544,260.065 942.21,261.065 943.5,262.5C 940.584,262.107 937.917,261.107 935.5,259.5C 937.173,257.914 939.173,257.247 941.5,257.5 Z"/></g>
<g><path style="opacity:1" fill="#474747" d="M 953.5,253.5 C 952.942,254.79 951.942,255.623 950.5,256C 947.479,256.849 944.479,257.683 941.5,258.5C 941.5,258.167 941.5,257.833 941.5,257.5C 945.376,255.863 949.376,254.529 953.5,253.5 Z"/></g>
<g><path style="opacity:1" fill="#a2a2a2" d="M 1081.5,255.5 C 1082.91,255.973 1083.57,256.973 1083.5,258.5C 1082.83,258.167 1082.17,257.833 1081.5,257.5C 1081.5,256.833 1081.5,256.167 1081.5,255.5 Z"/></g>
<g><path style="opacity:1" fill="#4e4e4e" d="M 1081.5,257.5 C 1082.17,257.833 1082.83,258.167 1083.5,258.5C 1084.11,259.391 1084.44,260.391 1084.5,261.5C 1082.74,260.738 1081.74,259.404 1081.5,257.5 Z"/></g>
<g><path style="opacity:1" fill="#6b6b6b" d="M 585.5,249.5 C 585.833,249.5 586.167,249.5 586.5,249.5C 584.825,254.88 583.158,260.213 581.5,265.5C 581.167,265.5 580.833,265.5 580.5,265.5C 581.394,259.823 583.061,254.49 585.5,249.5 Z"/></g>
<g><path style="opacity:1" fill="#3e3e3e" d="M 944.5,262.5 C 947.491,262.166 949.824,263.166 951.5,265.5C 948.843,265.065 946.509,264.065 944.5,262.5 Z"/></g>
<g><path style="opacity:1" fill="#616161" d="M 520.5,259.5 C 520.483,261.565 520.15,263.565 519.5,265.5C 519.167,265.5 518.833,265.5 518.5,265.5C 518.259,263.102 518.926,261.102 520.5,259.5 Z"/></g>
<g><path style="opacity:1" fill="#a0a0a0" d="M 1200.5,258.5 C 1199.17,261.167 1197.83,263.833 1196.5,266.5C 1195.09,266.973 1194.43,267.973 1194.5,269.5C 1194.5,270.167 1194.17,270.5 1193.5,270.5C 1194.31,265.535 1196.64,261.535 1200.5,258.5 Z"/></g>
<g><path style="opacity:1" fill="#6a6a6a" d="M 708.5,263.5 C 709.924,265.515 710.59,267.848 710.5,270.5C 709.076,268.485 708.41,266.152 708.5,263.5 Z"/></g>
<g><path style="opacity:1" fill="#4c4c4c" d="M 951.5,265.5 C 953.027,265.427 954.027,266.094 954.5,267.5C 952.973,267.573 951.973,266.906 951.5,265.5 Z"/></g>
<g><path style="opacity:1" fill="#363636" d="M 580.5,265.5 C 580.833,265.5 581.167,265.5 581.5,265.5C 581.5,266.5 581.5,267.5 581.5,268.5C 595.833,268.5 610.167,268.5 624.5,268.5C 624.5,268.833 624.5,269.167 624.5,269.5C 609.833,269.5 595.167,269.5 580.5,269.5C 580.5,268.167 580.5,266.833 580.5,265.5 Z"/></g>
<g><path style="opacity:1" fill="#6b6b6b" d="M 623.5,263.5 C 625.461,265.32 625.794,267.32 624.5,269.5C 624.5,269.167 624.5,268.833 624.5,268.5C 623.699,266.958 623.366,265.292 623.5,263.5 Z"/></g>
<g><path style="opacity:1" fill="#464646" d="M 1196.5,266.5 C 1196.57,268.027 1195.91,269.027 1194.5,269.5C 1194.43,267.973 1195.09,266.973 1196.5,266.5 Z"/></g>
<g><path style="opacity:1" fill="#a5a5a5" d="M 580.5,265.5 C 580.5,266.833 580.5,268.167 580.5,269.5C 595.167,269.5 609.833,269.5 624.5,269.5C 609.676,270.496 594.676,270.829 579.5,270.5C 579.216,268.585 579.549,266.919 580.5,265.5 Z"/></g>
<g><path style="opacity:1" fill="#909090" d="M 1088.5,267.5 C 1089.91,267.973 1090.57,268.973 1090.5,270.5C 1089.09,270.027 1088.43,269.027 1088.5,267.5 Z"/></g>
<g><path style="opacity:1" fill="#bfbfbf" d="M 705.5,256.5 C 706.313,258.261 707.313,259.928 708.5,261.5C 708.5,262.167 708.5,262.833 708.5,263.5C 708.41,266.152 709.076,268.485 710.5,270.5C 710.796,272.403 711.463,274.07 712.5,275.5C 712.5,276.833 712.5,278.167 712.5,279.5C 708.585,272.419 706.251,264.752 705.5,256.5 Z"/></g>
<g><path style="opacity:1" fill="#4b4b4b" d="M 956.5,268.5 C 959.089,269.419 961.089,271.086 962.5,273.5C 959.911,272.581 957.911,270.914 956.5,268.5 Z"/></g>
<g><path style="opacity:1" fill="#474747" d="M 710.5,270.5 C 712.213,271.635 712.88,273.302 712.5,275.5C 711.463,274.07 710.796,272.403 710.5,270.5 Z"/></g>
<g><path style="opacity:1" fill="#a0a0a0" d="M 1090.5,270.5 C 1091.91,270.973 1092.57,271.973 1092.5,273.5C 1091.83,273.167 1091.17,272.833 1090.5,272.5C 1090.5,271.833 1090.5,271.167 1090.5,270.5 Z"/></g>
<g><path style="opacity:1" fill="#a0a0a0" d="M 1193.5,270.5 C 1192.17,273.167 1190.83,275.833 1189.5,278.5C 1189.17,278.5 1188.83,278.5 1188.5,278.5C 1188.68,274.791 1190.35,272.124 1193.5,270.5 Z"/></g>
<g><path style="opacity:1" fill="#3d3d3d" d="M 1379.5,274.5 C 1345,274.168 1310.66,274.502 1276.5,275.5C 1275.5,290.658 1275.17,305.991 1275.5,321.5C 1274.17,305.764 1274.17,289.931 1275.5,274C 1310.34,273.169 1345,273.336 1379.5,274.5 Z"/></g>
<g><path style="opacity:1" fill="#444444" d="M 1090.5,272.5 C 1091.17,272.833 1091.83,273.167 1092.5,273.5C 1092.5,274.167 1092.5,274.833 1092.5,275.5C 1091.09,275.027 1090.43,274.027 1090.5,272.5 Z"/></g>
<g><path style="opacity:1" fill="#4c4c4c" d="M 515.5,276.5 C 515.204,278.403 514.537,280.07 513.5,281.5C 513.12,279.302 513.787,277.635 515.5,276.5 Z"/></g>
<g><path style="opacity:1" fill="#aaaaaa" d="M 1379.5,274.5 C 1380.82,290.402 1380.82,306.402 1379.5,322.5C 1345.17,322.5 1310.83,322.5 1276.5,322.5C 1276.5,306.833 1276.5,291.167 1276.5,275.5C 1310.66,274.502 1345,274.168 1379.5,274.5 Z"/></g>
<g><path style="opacity:1" fill="#ededed" d="M 1279.5,275.5 C 1312.5,275.5 1345.5,275.5 1378.5,275.5C 1378.5,290.833 1378.5,306.167 1378.5,321.5C 1344.66,321.832 1311,321.498 1277.5,320.5C 1310.83,320.5 1344.17,320.5 1377.5,320.5C 1377.5,305.833 1377.5,291.167 1377.5,276.5C 1344.66,276.832 1312,276.498 1279.5,275.5 Z"/></g>
<g><path style="opacity:1" fill="#fefefe" d="M 1279.5,275.5 C 1312,276.498 1344.66,276.832 1377.5,276.5C 1377.5,291.167 1377.5,305.833 1377.5,320.5C 1344.17,320.5 1310.83,320.5 1277.5,320.5C 1276.85,305.129 1277.52,290.129 1279.5,275.5 Z"/></g>
<g><path style="opacity:1" fill="#797979" d="M 1093.5,275.5 C 1095.2,277.566 1096.53,279.9 1097.5,282.5C 1095.06,280.879 1093.72,278.546 1093.5,275.5 Z"/></g>
<g><path style="opacity:1" fill="#535353" d="M 1188.5,278.5 C 1188.83,278.5 1189.17,278.5 1189.5,278.5C 1189.57,280.027 1188.91,281.027 1187.5,281.5C 1187.56,280.391 1187.89,279.391 1188.5,278.5 Z"/></g>
<g><path style="opacity:1" fill="#b4b4b4" d="M 365.5,282.5 C 342.994,282.169 320.66,282.503 298.5,283.5C 298.5,300.833 298.5,318.167 298.5,335.5C 297.503,318.008 297.17,300.341 297.5,282.5C 320.167,281.167 342.833,281.167 365.5,282.5 Z"/></g>
<g><path style="opacity:1" fill="#808080" d="M 965.5,277.5 C 968.243,279.239 970.243,281.573 971.5,284.5C 970.5,283.833 969.5,283.167 968.5,282.5C 967.075,281.078 966.075,279.411 965.5,277.5 Z"/></g>
<g><path style="opacity:1" fill="#6a6a6a" d="M 298.5,283.5 C 320.66,282.503 342.994,282.169 365.5,282.5C 365.5,283.167 365.5,283.833 365.5,284.5C 365.167,284.5 364.833,284.5 364.5,284.5C 343.006,283.503 321.34,283.169 299.5,283.5C 299.167,283.5 298.833,283.5 298.5,283.5 Z"/></g>
<g><path style="opacity:1" fill="#a1a1a1" d="M 712.5,275.5 C 713.312,279.443 714.312,283.443 715.5,287.5C 715.5,287.833 715.5,288.167 715.5,288.5C 713.528,285.916 712.528,282.916 712.5,279.5C 712.5,278.167 712.5,276.833 712.5,275.5 Z"/></g>
<g><path style="opacity:1" fill="#bdbdbd" d="M 874.5,281.5 C 870.629,281.185 866.962,281.518 863.5,282.5C 862.503,299.992 862.17,317.659 862.5,335.5C 861.338,317.671 861.171,299.671 862,281.5C 866.267,280.178 870.434,280.178 874.5,281.5 Z"/></g>
<g><path style="opacity:1" fill="#727272" d="M 863.5,282.5 C 866.962,281.518 870.629,281.185 874.5,281.5C 877.495,281.294 880.162,281.96 882.5,283.5C 876.529,282.759 870.529,282.425 864.5,282.5C 864.167,282.5 863.833,282.5 863.5,282.5 Z"/></g>
<g><path style="opacity:1" fill="#dedede" d="M 297.5,282.5 C 297.17,300.341 297.503,318.008 298.5,335.5C 298.5,336.167 298.833,336.5 299.5,336.5C 299.5,336.833 299.5,337.167 299.5,337.5C 298.504,337.586 297.671,337.252 297,336.5C 296.171,318.329 296.338,300.329 297.5,282.5 Z"/></g>
<g><path style="opacity:1" fill="#4f4f4f" d="M 298.5,283.5 C 298.833,283.5 299.167,283.5 299.5,283.5C 299.5,300.833 299.5,318.167 299.5,335.5C 306.167,335.5 312.833,335.5 319.5,335.5C 320.831,343.138 321.498,351.138 321.5,359.5C 321.5,367.674 321.166,375.674 320.5,383.5C 320.5,367.833 320.5,352.167 320.5,336.5C 313.5,336.5 306.5,336.5 299.5,336.5C 298.833,336.5 298.5,336.167 298.5,335.5C 298.5,318.167 298.5,300.833 298.5,283.5 Z"/></g>
<g><path style="opacity:1" fill="#a7a7a7" d="M 365.5,282.5 C 366.497,300.659 366.83,318.992 366.5,337.5C 359.833,337.5 353.167,337.5 346.5,337.5C 346.167,337.5 345.833,337.5 345.5,337.5C 351.979,336.509 358.646,336.176 365.5,336.5C 365.5,319.167 365.5,301.833 365.5,284.5C 365.5,283.833 365.5,283.167 365.5,282.5 Z"/></g>
<g><path style="opacity:1" fill="#a8a8a8" d="M 518.5,265.5 C 518.833,265.5 519.167,265.5 519.5,265.5C 517.871,275.664 514.871,285.331 510.5,294.5C 511.293,290.12 512.293,285.786 513.5,281.5C 514.537,280.07 515.204,278.403 515.5,276.5C 516.2,272.763 517.2,269.096 518.5,265.5 Z"/></g>
<g><path style="opacity:1" fill="#292929" d="M 863.5,282.5 C 863.833,282.5 864.167,282.5 864.5,282.5C 864.5,299.833 864.5,317.167 864.5,334.5C 871.022,334.177 877.355,334.51 883.5,335.5C 876.833,335.5 870.167,335.5 863.5,335.5C 863.5,317.833 863.5,300.167 863.5,282.5 Z"/></g>
<g><path style="opacity:1" fill="#8a8a8a" d="M 884.5,284.5 C 886.698,284.12 888.365,284.787 889.5,286.5C 887.597,286.204 885.93,285.537 884.5,284.5 Z"/></g>
<g><path style="opacity:1" fill="#afafaf" d="M 1185.5,282.5 C 1185.37,284.216 1185.04,285.883 1184.5,287.5C 1184.17,287.5 1183.83,287.5 1183.5,287.5C 1183.4,285.447 1184.07,283.78 1185.5,282.5 Z"/></g>
<g><path style="opacity:1" fill="#a3a3a3" d="M 889.5,286.5 C 891.5,286.5 892.5,287.5 892.5,289.5C 891.167,288.833 890.167,287.833 889.5,286.5 Z"/></g>
<g><path style="opacity:1" fill="#7f7f7f" d="M 1098.5,284.5 C 1099.91,284.973 1100.57,285.973 1100.5,287.5C 1099.09,287.027 1098.43,286.027 1098.5,284.5 Z"/></g>
<g><path style="opacity:1" fill="#484848" d="M 1187.5,281.5 C 1187.25,283.967 1186.25,285.967 1184.5,287.5C 1185.04,285.883 1185.37,284.216 1185.5,282.5C 1186.17,282.167 1186.83,281.833 1187.5,281.5 Z"/></g>
<g><path style="opacity:1" fill="#181818" d="M 299.5,283.5 C 321.34,283.169 343.006,283.503 364.5,284.5C 364.5,301.5 364.5,318.5 364.5,335.5C 357.833,335.5 351.167,335.5 344.5,335.5C 350.645,334.51 356.978,334.177 363.5,334.5C 363.5,317.833 363.5,301.167 363.5,284.5C 342.5,284.5 321.5,284.5 300.5,284.5C 300.5,301.167 300.5,317.833 300.5,334.5C 307.022,334.177 313.355,334.51 319.5,335.5C 312.833,335.5 306.167,335.5 299.5,335.5C 299.5,318.167 299.5,300.833 299.5,283.5 Z M 323.5,308.5 C 323.48,310.143 324.147,311.476 325.5,312.5C 328.163,313.192 330.663,314.192 333,315.5C 335.21,313.889 337.71,313.222 340.5,313.5C 340.5,311.833 340.5,310.167 340.5,308.5C 334.833,308.5 329.167,308.5 323.5,308.5 Z"/></g>
<g><path style="opacity:1" fill="#b4b4b4" d="M 968.5,282.5 C 969.5,283.167 970.5,283.833 971.5,284.5C 972.338,284.842 972.672,285.508 972.5,286.5C 972.5,287.167 972.5,287.833 972.5,288.5C 970.782,286.777 969.449,284.777 968.5,282.5 Z"/></g>
<g><path style="opacity:1" fill="#5d5d5d" d="M 972.5,286.5 C 973.906,286.973 974.573,287.973 974.5,289.5C 973.833,289.167 973.167,288.833 972.5,288.5C 972.5,287.833 972.5,287.167 972.5,286.5 Z"/></g>
<g><path style="opacity:1" fill="#aeaeae" d="M 1183.5,287.5 C 1182.89,288.391 1182.56,289.391 1182.5,290.5C 1182.17,291.167 1181.83,291.833 1181.5,292.5C 1181.17,292.5 1180.83,292.5 1180.5,292.5C 1180.59,290.152 1181.59,288.486 1183.5,287.5 Z"/></g>
<g><path style="opacity:1" fill="#5d5d5d" d="M 715.5,287.5 C 717.213,288.635 717.88,290.302 717.5,292.5C 716.833,291.5 716.167,290.5 715.5,289.5C 715.5,289.167 715.5,288.833 715.5,288.5C 715.5,288.167 715.5,287.833 715.5,287.5 Z"/></g>
<g><path style="opacity:1" fill="#4c4c4c" d="M 1183.5,287.5 C 1183.83,287.5 1184.17,287.5 1184.5,287.5C 1184.57,289.027 1183.91,290.027 1182.5,290.5C 1182.56,289.391 1182.89,288.391 1183.5,287.5 Z"/></g>
<g><path style="opacity:1" fill="#6b6b6b" d="M 1100.5,287.5 C 1101.89,288.899 1102.89,290.566 1103.5,292.5C 1101.24,291.656 1100.24,289.989 1100.5,287.5 Z"/></g>
<g><path style="opacity:1" fill="#bebebe" d="M 715.5,289.5 C 716.167,290.5 716.833,291.5 717.5,292.5C 717.5,292.833 717.5,293.167 717.5,293.5C 718.15,295.435 718.483,297.435 718.5,299.5C 716.723,296.495 715.723,293.162 715.5,289.5 Z"/></g>
<g><path style="opacity:1" fill="#c8c8c8" d="M 972.5,288.5 C 973.167,288.833 973.833,289.167 974.5,289.5C 976.036,294.109 977.37,298.776 978.5,303.5C 978.5,309.5 978.5,315.5 978.5,321.5C 977.672,315.013 977.172,308.346 977,301.5C 974.969,297.339 973.469,293.006 972.5,288.5 Z"/></g>
<g><path style="opacity:1" fill="#4f4f4f" d="M 974.5,289.5 C 977.324,293.63 978.991,298.297 979.5,303.5C 979.167,303.5 978.833,303.5 978.5,303.5C 977.37,298.776 976.036,294.109 974.5,289.5 Z"/></g>
<g><path style="opacity:1" fill="#575757" d="M 717.5,293.5 C 718.117,293.611 718.617,293.944 719,294.5C 720.143,297.777 720.977,301.11 721.5,304.5C 720.313,302.928 719.313,301.261 718.5,299.5C 718.483,297.435 718.15,295.435 717.5,293.5 Z"/></g>
<g><path style="opacity:1" fill="#878787" d="M 1103.5,292.5 C 1104.17,292.833 1104.83,293.167 1105.5,293.5C 1105.83,308.01 1105.5,322.343 1104.5,336.5C 1104.8,321.785 1104.47,307.118 1103.5,292.5 Z"/></g>
<g><path style="opacity:1" fill="#d9d9d9" d="M 1105.5,293.5 C 1106.17,300.659 1106.5,307.992 1106.5,315.5C 1106.5,323.198 1105.83,330.532 1104.5,337.5C 1104.5,337.167 1104.5,336.833 1104.5,336.5C 1105.5,322.343 1105.83,308.01 1105.5,293.5 Z"/></g>
<g><path style="opacity:1" fill="#808080" d="M 1180.5,292.5 C 1179.53,306.451 1179.2,320.451 1179.5,334.5C 1185.41,336.456 1191.75,337.123 1198.5,336.5C 1198.5,336.833 1198.5,337.167 1198.5,337.5C 1192.17,337.5 1185.83,337.5 1179.5,337.5C 1178.34,323.006 1178.17,308.339 1179,293.5C 1179.38,292.944 1179.88,292.611 1180.5,292.5 Z"/></g>
<g><path style="opacity:1" fill="#252525" d="M 1180.5,292.5 C 1180.83,292.5 1181.17,292.5 1181.5,292.5C 1180.9,306.648 1180.24,320.648 1179.5,334.5C 1179.2,320.451 1179.53,306.451 1180.5,292.5 Z"/></g>
<g><path style="opacity:1" fill="#9a9a9a" d="M 892.5,289.5 C 895.937,291.836 897.604,295.17 897.5,299.5C 897.963,302.482 898.296,305.482 898.5,308.5C 898.167,308.5 897.833,308.5 897.5,308.5C 896.662,308.158 896.328,307.492 896.5,306.5C 896.956,301.404 895.956,296.738 893.5,292.5C 892.89,291.609 892.557,290.609 892.5,289.5 Z"/></g>
<g><path style="opacity:1" fill="#979797" d="M 509.5,294.5 C 510.26,299.906 508.927,304.573 505.5,308.5C 507.053,303.846 508.387,299.179 509.5,294.5 Z"/></g>
<g><path style="opacity:1" fill="#b0b0b0" d="M 718.5,299.5 C 719.313,301.261 720.313,302.928 721.5,304.5C 722.434,305.568 722.768,306.901 722.5,308.5C 719.659,306.36 718.326,303.36 718.5,299.5 Z"/></g>
<g><path style="opacity:1" fill="#272727" d="M 893.5,292.5 C 895.956,296.738 896.956,301.404 896.5,306.5C 895.01,302.058 894.01,297.391 893.5,292.5 Z"/></g>
<g><path style="opacity:1" fill="#bcbcbc" d="M 638.5,312.5 C 614.498,312.333 590.498,312.5 566.5,313C 565.291,316.037 564.457,319.204 564,322.5C 563.617,323.056 563.117,323.389 562.5,323.5C 562.993,319.524 563.993,315.69 565.5,312C 590.003,311.17 614.337,311.337 638.5,312.5 Z"/></g>
<g><path style="opacity:1" fill="#6f6f6f" d="M 1019.5,311.5 C 1019.17,311.5 1018.83,311.5 1018.5,311.5C 1010.83,311.5 1003.17,311.5 995.5,311.5C 995.5,316.167 995.5,320.833 995.5,325.5C 995.737,326.791 995.404,327.791 994.5,328.5C 994.5,322.5 994.5,316.5 994.5,310.5C 1003.02,310.174 1011.35,310.507 1019.5,311.5 Z"/></g>
<g><path style="opacity:1" fill="#5c5c5c" d="M 722.5,308.5 C 724.68,311.381 725.68,314.714 725.5,318.5C 725.167,318.5 724.833,318.5 724.5,318.5C 724.741,316.102 724.074,314.102 722.5,312.5C 722.5,311.167 722.5,309.833 722.5,308.5 Z"/></g>
<g><path style="opacity:1" fill="#818181" d="M 505.5,309.5 C 505.483,311.565 505.15,313.565 504.5,315.5C 504.167,315.5 503.833,315.5 503.5,315.5C 503.259,313.102 503.926,311.102 505.5,309.5 Z"/></g>
<g><path style="opacity:1" fill="#cccccc" d="M 897.5,299.5 C 898.268,300.263 898.768,301.263 899,302.5C 899.5,311.827 899.666,321.161 899.5,330.5C 898.508,323.352 898.175,316.019 898.5,308.5C 898.296,305.482 897.963,302.482 897.5,299.5 Z"/></g>
<g><path style="opacity:1" fill="#dedede" d="M 1018.5,311.5 C 1018.5,321.5 1018.5,331.5 1018.5,341.5C 1018.5,341.833 1018.5,342.167 1018.5,342.5C 1018.17,342.5 1017.83,342.5 1017.5,342.5C 1017.5,332.5 1017.5,322.5 1017.5,312.5C 1010.83,312.5 1004.17,312.5 997.5,312.5C 997.666,316.514 997.499,320.514 997,324.5C 996.617,325.056 996.117,325.389 995.5,325.5C 995.5,320.833 995.5,316.167 995.5,311.5C 1003.17,311.5 1010.83,311.5 1018.5,311.5 Z"/></g>
<g><path style="opacity:1" fill="#8b8b8b" d="M 1018.5,311.5 C 1018.83,311.5 1019.17,311.5 1019.5,311.5C 1020.17,316.322 1020.5,321.322 1020.5,326.5C 1020.49,331.881 1019.83,336.881 1018.5,341.5C 1018.5,331.5 1018.5,321.5 1018.5,311.5 Z"/></g>
<g><path style="opacity:1" fill="#474747" d="M 503.5,315.5 C 503.204,317.403 502.537,319.07 501.5,320.5C 501.12,318.302 501.787,316.635 503.5,315.5 Z"/></g>
<g><path style="opacity:1" fill="#bebebe" d="M 722.5,312.5 C 724.074,314.102 724.741,316.102 724.5,318.5C 722.926,316.898 722.259,314.898 722.5,312.5 Z"/></g>
<g><path style="opacity:1" fill="#6c6c6c" d="M 897.5,308.5 C 897.833,308.5 898.167,308.5 898.5,308.5C 898.175,316.019 898.508,323.352 899.5,330.5C 899.5,332.833 899.5,335.167 899.5,337.5C 898.778,337.082 898.278,336.416 898,335.5C 897.5,326.506 897.334,317.506 897.5,308.5 Z"/></g>
<g><path style="opacity:1" fill="#acacac" d="M 641.5,320.5 C 643.213,321.635 643.88,323.302 643.5,325.5C 642.833,324.833 642.167,324.167 641.5,323.5C 641.5,322.5 641.5,321.5 641.5,320.5 Z"/></g>
<g><path style="opacity:1" fill="#585858" d="M 1276.5,275.5 C 1276.5,291.167 1276.5,306.833 1276.5,322.5C 1310.83,322.5 1345.17,322.5 1379.5,322.5C 1362.34,323.167 1345,323.5 1327.5,323.5C 1309.82,323.5 1292.49,322.833 1275.5,321.5C 1275.17,305.991 1275.5,290.658 1276.5,275.5 Z"/></g>
<g><path style="opacity:1" fill="#434343" d="M 501.5,321.5 C 500.85,323.435 500.517,325.435 500.5,327.5C 500.167,327.5 499.833,327.5 499.5,327.5C 499.054,324.99 499.72,322.99 501.5,321.5 Z"/></g>
<g><path style="opacity:1" fill="#b3b3b3" d="M 503.5,315.5 C 503.833,315.5 504.167,315.5 504.5,315.5C 503.744,319.767 502.411,323.767 500.5,327.5C 500.517,325.435 500.85,323.435 501.5,321.5C 501.5,321.167 501.5,320.833 501.5,320.5C 502.537,319.07 503.204,317.403 503.5,315.5 Z"/></g>
<g><path style="opacity:1" fill="#808080" d="M 978.5,303.5 C 978.833,303.5 979.167,303.5 979.5,303.5C 979.326,310.535 979.659,317.535 980.5,324.5C 979.833,323.5 979.167,322.5 978.5,321.5C 978.5,315.5 978.5,309.5 978.5,303.5 Z"/></g>
<g><path style="opacity:1" fill="#b9b9b9" d="M 978.5,321.5 C 979.167,322.5 979.833,323.5 980.5,324.5C 980.614,326.718 981.28,328.718 982.5,330.5C 982.5,331.167 982.5,331.833 982.5,332.5C 979.81,329.453 978.476,325.787 978.5,321.5 Z"/></g>
<g><path style="opacity:1" fill="#606060" d="M 726.5,322.5 C 728.38,324.755 729.38,327.422 729.5,330.5C 728.833,329.5 728.167,328.5 727.5,327.5C 726.699,325.958 726.366,324.292 726.5,322.5 Z"/></g>
<g><path style="opacity:1" fill="#3d3d3d" d="M 641.5,323.5 C 642.167,324.167 642.833,324.833 643.5,325.5C 643.5,326.167 643.5,326.833 643.5,327.5C 643.5,328.167 643.5,328.833 643.5,329.5C 641.926,327.898 641.259,325.898 641.5,323.5 Z"/></g>
<g><path style="opacity:1" fill="#acacac" d="M 643.5,327.5 C 645.256,328.552 645.923,330.219 645.5,332.5C 644.833,331.5 644.167,330.5 643.5,329.5C 643.5,328.833 643.5,328.167 643.5,327.5 Z"/></g>
<g><path style="opacity:1" fill="#b5b5b5" d="M 727.5,327.5 C 728.167,328.5 728.833,329.5 729.5,330.5C 729.5,331.167 729.5,331.833 729.5,332.5C 729.5,333.167 729.5,333.833 729.5,334.5C 728.076,332.485 727.41,330.152 727.5,327.5 Z"/></g>
<g><path style="opacity:1" fill="#888888" d="M 994.5,328.5 C 994.631,331.367 993.297,333.033 990.5,333.5C 991.864,331.809 993.197,330.142 994.5,328.5 Z"/></g>
<g><path style="opacity:1" fill="#838383" d="M 982.5,330.5 C 984.213,332.85 986.547,333.85 989.5,333.5C 987.03,334.878 984.696,334.545 982.5,332.5C 982.5,331.833 982.5,331.167 982.5,330.5 Z"/></g>
<g><path style="opacity:1" fill="#585858" d="M 729.5,332.5 C 730.906,332.973 731.573,333.973 731.5,335.5C 730.833,335.167 730.167,334.833 729.5,334.5C 729.5,333.833 729.5,333.167 729.5,332.5 Z"/></g>
<g><path style="opacity:1" fill="#4b4b4b" d="M 1501.5,182.5 C 1501.5,233.167 1501.5,283.833 1501.5,334.5C 1508.69,334.175 1515.69,334.509 1522.5,335.5C 1515.5,335.5 1508.5,335.5 1501.5,335.5C 1501.17,335.5 1500.83,335.5 1500.5,335.5C 1500.17,284.331 1500.5,233.331 1501.5,182.5 Z"/></g>
<g><path style="opacity:1" fill="#3b3b3b" d="M 496.5,335.5 C 488.833,336.167 481.167,336.833 473.5,337.5C 473.167,337.5 472.833,337.5 472.5,337.5C 480.097,335.533 488.097,334.866 496.5,335.5 Z"/></g>
<g><path style="opacity:1" fill="#3d3d3d" d="M 643.5,329.5 C 644.167,330.5 644.833,331.5 645.5,332.5C 645.5,333.833 645.5,335.167 645.5,336.5C 634.5,336.5 623.5,336.5 612.5,336.5C 623.008,335.833 633.674,335.167 644.5,334.5C 643.691,332.929 643.357,331.262 643.5,329.5 Z"/></g>
<g><path style="opacity:1" fill="#7a7a7a" d="M 1404.5,335.5 C 1411.83,335.5 1419.17,335.5 1426.5,335.5C 1419.5,336.167 1412.5,336.833 1405.5,337.5C 1404.5,352.658 1404.17,367.991 1404.5,383.5C 1403.17,367.5 1403.17,351.5 1404.5,335.5 Z"/></g>
<g><path style="opacity:1" fill="#bababa" d="M 439.5,335.5 C 439.833,335.5 440.167,335.5 440.5,335.5C 446.833,336.167 453.167,336.833 459.5,337.5C 452.416,338.126 445.75,337.459 439.5,335.5 Z"/></g>
<g><path style="opacity:1" fill="#9e9e9e" d="M 499.5,327.5 C 499.833,327.5 500.167,327.5 500.5,327.5C 500.223,330.89 499.223,334.057 497.5,337C 489.507,337.5 481.507,337.666 473.5,337.5C 481.167,336.833 488.833,336.167 496.5,335.5C 497.871,333.064 498.871,330.397 499.5,327.5 Z"/></g>
<g><path style="opacity:1" fill="#9c9c9c" d="M 863.5,282.5 C 863.5,300.167 863.5,317.833 863.5,335.5C 870.167,336.167 876.833,336.833 883.5,337.5C 876.087,338.128 869.087,337.461 862.5,335.5C 862.17,317.659 862.503,299.992 863.5,282.5 Z"/></g>
<g><path style="opacity:1" fill="#737373" d="M 1501.5,335.5 C 1508.5,335.5 1515.5,335.5 1522.5,335.5C 1523.83,351.5 1523.83,367.5 1522.5,383.5C 1522.5,383.167 1522.5,382.833 1522.5,382.5C 1522.5,367.167 1522.5,351.833 1522.5,336.5C 1515.31,336.825 1508.31,336.491 1501.5,335.5 Z"/></g>
<g><path style="opacity:1" fill="#646464" d="M 1620.5,182.5 C 1621.5,233.331 1621.83,284.331 1621.5,335.5C 1621.5,336.167 1621.17,336.5 1620.5,336.5C 1611.17,336.5 1601.83,336.5 1592.5,336.5C 1592.5,351.833 1592.5,367.167 1592.5,382.5C 1592.5,382.833 1592.5,383.167 1592.5,383.5C 1591.34,367.672 1591.17,351.672 1592,335.5C 1601.42,334.515 1610.92,334.182 1620.5,334.5C 1620.5,283.833 1620.5,233.167 1620.5,182.5 Z"/></g>
<g><path style="opacity:1" fill="#8c8c8c" d="M 1695.5,335.5 C 1705.17,335.5 1714.83,335.5 1724.5,335.5C 1725.83,351.5 1725.83,367.5 1724.5,383.5C 1724.5,367.833 1724.5,352.167 1724.5,336.5C 1714.65,336.827 1704.99,336.494 1695.5,335.5 Z"/></g>
<g><path style="opacity:1" fill="#4a4a4a" d="M 364.5,284.5 C 364.833,284.5 365.167,284.5 365.5,284.5C 365.5,301.833 365.5,319.167 365.5,336.5C 358.646,336.176 351.979,336.509 345.5,337.5C 344.167,352.5 344.167,367.5 345.5,382.5C 383.663,383.499 421.996,383.832 460.5,383.5C 422.002,384.665 383.336,384.831 344.5,384C 343.174,367.833 343.174,351.667 344.5,335.5C 351.167,335.5 357.833,335.5 364.5,335.5C 364.5,318.5 364.5,301.5 364.5,284.5 Z"/></g>
<g><path style="opacity:1" fill="#cecece" d="M 345.5,337.5 C 345.833,337.5 346.167,337.5 346.5,337.5C 346.5,352.5 346.5,367.5 346.5,382.5C 346.167,382.5 345.833,382.5 345.5,382.5C 344.167,367.5 344.167,352.5 345.5,337.5 Z"/></g>
<g><path style="opacity:1" fill="#858585" d="M 472.5,337.5 C 472.833,337.5 473.167,337.5 473.5,337.5C 473.171,352.676 473.504,367.676 474.5,382.5C 474.5,382.833 474.5,383.167 474.5,383.5C 472.516,368.536 471.849,353.203 472.5,337.5 Z"/></g>
<g><path style="opacity:1" fill="#535353" d="M 863.5,335.5 C 870.167,335.5 876.833,335.5 883.5,335.5C 884.117,335.611 884.617,335.944 885,336.5C 885.828,352.339 885.661,368.005 884.5,383.5C 884.83,367.991 884.496,352.658 883.5,337.5C 876.833,336.833 870.167,336.167 863.5,335.5 Z"/></g>
<g><path style="opacity:1" fill="#606060" d="M 440.5,335.5 C 447.167,335.5 453.833,335.5 460.5,335.5C 461.823,351.598 461.823,367.598 460.5,383.5C 460.83,367.991 460.496,352.658 459.5,337.5C 453.167,336.833 446.833,336.167 440.5,335.5 Z"/></g>
<g><path style="opacity:1" fill="#454545" d="M 562.5,323.5 C 562.891,327.383 562.224,331.05 560.5,334.5C 569.392,335.18 578.226,335.846 587,336.5C 587.828,352.339 587.661,368.005 586.5,383.5C 586.83,367.991 586.496,352.658 585.5,337.5C 577.016,336.507 568.349,336.174 559.5,336.5C 560.34,332.015 561.34,327.681 562.5,323.5 Z"/></g>
<g><path style="opacity:1" fill="#a1a1a1" d="M 612.5,336.5 C 623.5,336.5 634.5,336.5 645.5,336.5C 635.013,337.494 624.346,337.828 613.5,337.5C 613.5,352.5 613.5,367.5 613.5,382.5C 612.504,367.342 612.17,352.009 612.5,336.5 Z"/></g>
<g><path style="opacity:1" fill="#dddddd" d="M 645.5,332.5 C 647.745,333.828 648.078,335.661 646.5,338C 635.839,338.5 625.172,338.667 614.5,338.5C 614.5,353.167 614.5,367.833 614.5,382.5C 614.167,382.5 613.833,382.5 613.5,382.5C 613.5,367.5 613.5,352.5 613.5,337.5C 624.346,337.828 635.013,337.494 645.5,336.5C 645.5,335.167 645.5,333.833 645.5,332.5 Z"/></g>
<g><path style="opacity:1" fill="#474747" d="M 1084.5,337.5 C 1084.17,352.676 1084.5,367.676 1085.5,382.5C 1123,383.498 1160.66,383.832 1198.5,383.5C 1160.67,384.664 1122.67,384.831 1084.5,384C 1083.17,368.402 1083.17,352.902 1084.5,337.5 Z"/></g>
<g><path style="opacity:1" fill="#cdcdcd" d="M 1179.5,337.5 C 1185.83,337.5 1192.17,337.5 1198.5,337.5C 1198.83,352.676 1198.5,367.676 1197.5,382.5C 1197.5,367.833 1197.5,353.167 1197.5,338.5C 1191.31,338.823 1185.31,338.49 1179.5,337.5 Z"/></g>
<g><path style="opacity:1" fill="#2c2c2c" d="M 1198.5,337.5 C 1198.5,337.167 1198.5,336.833 1198.5,336.5C 1199.83,343.97 1200.5,351.804 1200.5,360C 1200.5,368.007 1200.17,375.841 1199.5,383.5C 1199.83,367.991 1199.5,352.658 1198.5,337.5 Z"/></g>
<g><path style="opacity:1" fill="#4b4b4b" d="M 204.5,335.5 C 210.833,335.5 217.167,335.5 223.5,335.5C 223.5,336.167 223.167,336.5 222.5,336.5C 216.5,336.5 210.5,336.5 204.5,336.5C 204.5,352.167 204.5,367.833 204.5,383.5C 203.167,367.5 203.167,351.5 204.5,335.5 Z"/></g>
<g><path style="opacity:1" fill="#757575" d="M 768.5,336.5 C 768.833,336.5 769.167,336.5 769.5,336.5C 769.17,352.009 769.504,367.342 770.5,382.5C 770.5,382.833 770.5,383.167 770.5,383.5C 768.516,368.202 767.849,352.536 768.5,336.5 Z"/></g>
<g><path style="opacity:1" fill="#a1a1a1" d="M 788.5,181.5 C 789.499,232.664 789.832,283.997 789.5,335.5C 783.588,337.456 777.255,338.123 770.5,337.5C 770.5,352.5 770.5,367.5 770.5,382.5C 769.504,367.342 769.17,352.009 769.5,336.5C 775.645,335.51 781.978,335.177 788.5,335.5C 788.5,284.167 788.5,232.833 788.5,181.5 Z"/></g>
<g><path style="opacity:1" fill="#7c7c7c" d="M 899.5,337.5 C 900.657,340.273 901.324,343.273 901.5,346.5C 899.735,343.877 899.068,340.877 899.5,337.5 Z"/></g>
<g><path style="opacity:1" fill="#989898" d="M 1104.5,336.5 C 1104.5,336.833 1104.5,337.167 1104.5,337.5C 1098.17,337.5 1091.83,337.5 1085.5,337.5C 1085.5,352.5 1085.5,367.5 1085.5,382.5C 1084.5,367.676 1084.17,352.676 1084.5,337.5C 1090.98,336.509 1097.65,336.176 1104.5,336.5 Z"/></g>
<g><path style="opacity:1" fill="#e3e3e3" d="M 1104.5,337.5 C 1098.77,338.186 1092.93,338.852 1087,339.5C 1086.5,353.829 1086.33,368.163 1086.5,382.5C 1086.17,382.5 1085.83,382.5 1085.5,382.5C 1085.5,367.5 1085.5,352.5 1085.5,337.5C 1091.83,337.5 1098.17,337.5 1104.5,337.5 Z"/></g>
<g><path style="opacity:1" fill="#d6d6d6" d="M 1500.5,335.5 C 1500.83,335.5 1501.17,335.5 1501.5,335.5C 1508.31,336.491 1515.31,336.825 1522.5,336.5C 1522.5,351.833 1522.5,367.167 1522.5,382.5C 1522.17,382.5 1521.83,382.5 1521.5,382.5C 1521.5,367.5 1521.5,352.5 1521.5,337.5C 1514.09,338.128 1507.09,337.461 1500.5,335.5 Z"/></g>
<g><path style="opacity:1" fill="#d1d1d1" d="M 1620.5,336.5 C 1611.68,337.493 1602.68,337.827 1593.5,337.5C 1593.5,352.5 1593.5,367.5 1593.5,382.5C 1593.17,382.5 1592.83,382.5 1592.5,382.5C 1592.5,367.167 1592.5,351.833 1592.5,336.5C 1601.83,336.5 1611.17,336.5 1620.5,336.5 Z"/></g>
<g><path style="opacity:1" fill="#bfbfbf" d="M 1695.5,181.5 C 1695.5,232.833 1695.5,284.167 1695.5,335.5C 1704.99,336.494 1714.65,336.827 1724.5,336.5C 1724.5,352.167 1724.5,367.833 1724.5,383.5C 1680.5,383.5 1636.5,383.5 1592.5,383.5C 1592.5,383.167 1592.5,382.833 1592.5,382.5C 1592.83,382.5 1593.17,382.5 1593.5,382.5C 1636.83,382.5 1680.17,382.5 1723.5,382.5C 1723.5,367.5 1723.5,352.5 1723.5,337.5C 1713.83,337.5 1704.17,337.5 1694.5,337.5C 1694.17,285.331 1694.5,233.331 1695.5,181.5 Z"/></g>
<g><path style="opacity:1" fill="#a8a8a8" d="M 1017.5,342.5 C 1017.83,342.5 1018.17,342.5 1018.5,342.5C 1018.2,349.198 1016.87,355.698 1014.5,362C 1012.93,364.333 1011.27,366.5 1009.5,368.5C 1010.5,363.494 1012.34,358.827 1015,354.5C 1015.33,350.371 1016.16,346.371 1017.5,342.5 Z"/></g>
<g><path style="opacity:1" fill="#a5a5a5" d="M 901.5,346.5 C 903.213,347.635 903.88,349.302 903.5,351.5C 902.069,350.22 901.402,348.553 901.5,346.5 Z"/></g>
<g><path style="opacity:1" fill="#797979" d="M 903.5,353.5 C 904.906,353.973 905.573,354.973 905.5,356.5C 904.094,356.027 903.427,355.027 903.5,353.5 Z"/></g>
<g><path style="opacity:1" fill="#9e9e9e" d="M 905.5,356.5 C 906.906,356.973 907.573,357.973 907.5,359.5C 906.833,359.167 906.167,358.833 905.5,358.5C 905.5,357.833 905.5,357.167 905.5,356.5 Z"/></g>
<g><path style="opacity:1" fill="#4b4b4b" d="M 905.5,358.5 C 906.167,358.833 906.833,359.167 907.5,359.5C 907.5,360.167 907.5,360.833 907.5,361.5C 906.094,361.027 905.427,360.027 905.5,358.5 Z"/></g>
<g><path style="opacity:1" fill="#b3b3b3" d="M 908.5,361.5 C 911.107,362.712 912.774,364.712 913.5,367.5C 912.5,366.833 911.5,366.167 910.5,365.5C 909.326,364.486 908.66,363.153 908.5,361.5 Z"/></g>
<g><path style="opacity:1" fill="#585858" d="M 910.5,365.5 C 911.5,366.167 912.5,366.833 913.5,367.5C 915.167,369.5 916.833,371.5 918.5,373.5C 914.833,371.833 912.167,369.167 910.5,365.5 Z"/></g>
<g><path style="opacity:1" fill="#929292" d="M 1009.5,368.5 C 1008.92,370.411 1007.92,372.078 1006.5,373.5C 1006.17,373.5 1005.83,373.5 1005.5,373.5C 1006.08,371.251 1007.41,369.585 1009.5,368.5 Z"/></g>
<g><path style="opacity:1" fill="#7b7b7b" d="M 918.5,373.5 C 920.404,373.738 921.738,374.738 922.5,376.5C 920.596,376.262 919.262,375.262 918.5,373.5 Z"/></g>
<g><path style="opacity:1" fill="#464646" d="M 922.5,376.5 C 925.004,377.584 927.337,378.917 929.5,380.5C 926.11,380.885 923.777,379.552 922.5,376.5 Z"/></g>
<g><path style="opacity:1" fill="#5b5b5b" d="M 929.5,380.5 C 932.157,380.935 934.491,381.935 936.5,383.5C 933.509,383.834 931.176,382.834 929.5,380.5 Z"/></g>
<g><path style="opacity:1" fill="#aaaaaa" d="M 222.5,336.5 C 222.5,336.833 222.5,337.167 222.5,337.5C 216.833,337.5 211.167,337.5 205.5,337.5C 205.5,352.5 205.5,367.5 205.5,382.5C 243.5,382.5 281.5,382.5 319.5,382.5C 319.5,367.5 319.5,352.5 319.5,337.5C 312.833,337.5 306.167,337.5 299.5,337.5C 299.5,337.167 299.5,336.833 299.5,336.5C 306.5,336.5 313.5,336.5 320.5,336.5C 320.5,352.167 320.5,367.833 320.5,383.5C 281.833,383.5 243.167,383.5 204.5,383.5C 204.5,367.833 204.5,352.167 204.5,336.5C 210.5,336.5 216.5,336.5 222.5,336.5 Z"/></g>
<g><path style="opacity:1" fill="#afafaf" d="M 459.5,337.5 C 460.496,352.658 460.83,367.991 460.5,383.5C 421.996,383.832 383.663,383.499 345.5,382.5C 345.833,382.5 346.167,382.5 346.5,382.5C 384.167,382.5 421.833,382.5 459.5,382.5C 459.5,367.5 459.5,352.5 459.5,337.5 Z"/></g>
<g><path style="opacity:1" fill="#aaaaaa" d="M 585.5,337.5 C 586.496,352.658 586.83,367.991 586.5,383.5C 549.167,383.5 511.833,383.5 474.5,383.5C 474.5,383.167 474.5,382.833 474.5,382.5C 511.5,382.5 548.5,382.5 585.5,382.5C 585.5,367.5 585.5,352.5 585.5,337.5 Z"/></g>
<g><path style="opacity:1" fill="#a3a3a3" d="M 729.5,334.5 C 730.167,334.833 730.833,335.167 731.5,335.5C 739.65,336.493 747.983,336.826 756.5,336.5C 756.83,352.342 756.496,368.009 755.5,383.5C 707.997,383.832 660.664,383.499 613.5,382.5C 613.833,382.5 614.167,382.5 614.5,382.5C 661.167,382.5 707.833,382.5 754.5,382.5C 754.5,367.5 754.5,352.5 754.5,337.5C 746.493,337.666 738.493,337.5 730.5,337C 729.748,336.329 729.414,335.496 729.5,334.5 Z"/></g>
<g><path style="opacity:1" fill="#a9a9a9" d="M 883.5,337.5 C 884.496,352.658 884.83,367.991 884.5,383.5C 846.5,383.5 808.5,383.5 770.5,383.5C 770.5,383.167 770.5,382.833 770.5,382.5C 808.167,382.5 845.833,382.5 883.5,382.5C 883.5,367.5 883.5,352.5 883.5,337.5 Z"/></g>
<g><path style="opacity:1" fill="#6f6f6f" d="M 1005.5,373.5 C 1005.83,373.5 1006.17,373.5 1006.5,373.5C 1003.8,377.027 1000.46,379.86 996.5,382C 994.655,383.128 992.655,383.628 990.5,383.5C 995.635,380.428 1000.64,377.095 1005.5,373.5 Z"/></g>
<g><path style="opacity:1" fill="#a1a1a1" d="M 1198.5,337.5 C 1199.5,352.658 1199.83,367.991 1199.5,383.5C 1199.17,383.5 1198.83,383.5 1198.5,383.5C 1160.66,383.832 1123,383.498 1085.5,382.5C 1085.83,382.5 1086.17,382.5 1086.5,382.5C 1123.5,382.5 1160.5,382.5 1197.5,382.5C 1198.5,367.676 1198.83,352.676 1198.5,337.5 Z"/></g>
<g><path style="opacity:1" fill="#b0b0b0" d="M 1405.5,337.5 C 1405.5,352.5 1405.5,367.5 1405.5,382.5C 1444.17,382.5 1482.83,382.5 1521.5,382.5C 1521.83,382.5 1522.17,382.5 1522.5,382.5C 1522.5,382.833 1522.5,383.167 1522.5,383.5C 1483.17,383.5 1443.83,383.5 1404.5,383.5C 1404.17,367.991 1404.5,352.658 1405.5,337.5 Z"/></g>
<g><path style="opacity:1" fill="#3a3a3a" d="M 612.5,336.5 C 612.17,352.009 612.504,367.342 613.5,382.5C 660.664,383.499 707.997,383.832 755.5,383.5C 708.002,384.665 660.335,384.832 612.5,384C 611.17,368.069 611.17,352.236 612.5,336.5 Z"/></g>
<g><path style="opacity:1" fill="#7f7f7f" d="M 937.5,383.5 C 939.898,383.259 941.898,383.926 943.5,385.5C 941.102,385.741 939.102,385.074 937.5,383.5 Z"/></g>
<g><path style="opacity:1" fill="#777777" d="M 990.5,383.5 C 989.01,385.28 987.01,385.946 984.5,385.5C 986.302,384.542 988.302,383.875 990.5,383.5 Z"/></g>
<g><path style="opacity:1" fill="#3d3d3d" d="M 955.5,387.5 C 962.167,387.5 968.833,387.5 975.5,387.5C 973.085,388.814 970.252,389.481 967,389.5C 962.867,389.714 959.034,389.048 955.5,387.5 Z"/></g>
</svg>
