<svg width="24" height="23" viewBox="0 0 24 23" fill="none" xmlns="http://www.w3.org/2000/svg">
<path d="M23.3686 3.72576L12.2918 0.0471567C12.1023 -0.0157189 11.8975 -0.0157189 11.708 0.0471567L0.648918 3.72001L0.647764 3.72035L0.631148 3.72587C0.627918 3.72702 0.625033 3.72874 0.621918 3.72989C0.581896 3.74357 0.542879 3.76001 0.50515 3.7791C0.50088 3.78139 0.49638 3.78312 0.492111 3.78542C0.4548 3.80527 0.418907 3.82766 0.384689 3.85244C0.377184 3.85784 0.36976 3.86336 0.36242 3.86899C0.32908 3.89409 0.297471 3.9214 0.267805 3.95072C0.265151 3.9536 0.262728 3.95659 0.260075 3.95935C0.232756 3.9877 0.207282 4.01777 0.183806 4.04936C0.17896 4.05579 0.173999 4.062 0.169383 4.06855C0.145159 4.10267 0.1233 4.13839 0.103961 4.17546C0.100961 4.18121 0.0984221 4.18696 0.0955375 4.19271C0.0774882 4.22908 0.0618773 4.2666 0.0488073 4.30502C0.0476535 4.30858 0.0460381 4.31203 0.0448842 4.31571C0.0318547 4.35653 0.0217144 4.39821 0.0145383 4.44044C0.0130383 4.44929 0.0117691 4.45814 0.0104999 4.46688C0.00386132 4.51037 0.000352452 4.55428 0 4.59827V13.7948C0 14.0387 0.0972516 14.2726 0.270361 14.4451C0.44347 14.6175 0.678256 14.7144 0.923069 14.7144C1.16788 14.7144 1.40267 14.6175 1.57578 14.4451C1.74889 14.2726 1.84614 14.0387 1.84614 13.7948V5.87429L5.7213 7.16122C4.69401 8.8139 4.36529 10.8046 4.80703 12.698C5.24876 14.5915 6.425 16.2337 8.07858 17.2655C5.87666 18.095 3.99772 19.6027 2.71498 21.5693C2.64711 21.6704 2.60007 21.784 2.57657 21.9033C2.55306 22.0227 2.55357 22.1456 2.57805 22.2647C2.60254 22.3839 2.65051 22.4971 2.71921 22.5977C2.7879 22.6983 2.87594 22.7843 2.97823 22.8507C3.08052 22.9172 3.19503 22.9627 3.31511 22.9848C3.4352 23.0068 3.55849 23.0049 3.67783 22.9791C3.79718 22.9534 3.9102 22.9043 4.01036 22.8347C4.11053 22.7651 4.19583 22.6764 4.26135 22.5737C5.09995 21.2902 6.24694 20.2355 7.59827 19.5055C8.9496 18.7754 10.4625 18.393 11.9997 18.393C13.5369 18.393 15.0498 18.7754 16.4012 19.5055C17.7525 20.2355 18.8995 21.2902 19.7381 22.5737C19.804 22.6756 19.8894 22.7635 19.9895 22.8323C20.0896 22.9012 20.2024 22.9496 20.3213 22.9749C20.4403 23.0002 20.563 23.0018 20.6826 22.9797C20.8022 22.9575 20.9162 22.9121 21.0181 22.8459C21.12 22.7797 21.2077 22.6941 21.2763 22.5941C21.3449 22.494 21.3929 22.3814 21.4177 22.2628C21.4425 22.1441 21.4435 22.0218 21.4206 21.9028C21.3978 21.7838 21.3515 21.6704 21.2846 21.5693C20.0019 19.6027 18.123 18.0951 15.9211 17.2656C17.5747 16.2338 18.751 14.5916 19.1927 12.6981C19.6344 10.8046 19.3057 8.8139 18.2784 7.16122L23.3686 5.47079C23.5525 5.40978 23.7124 5.29268 23.8257 5.13608C23.939 4.97948 24 4.79132 24 4.59827C24 4.40522 23.939 4.21707 23.8257 4.06047C23.7124 3.90387 23.5525 3.78677 23.3686 3.72576ZM17.5383 11.0358C17.5385 11.9082 17.3312 12.7681 16.9332 13.5451C16.5352 14.3222 15.958 14.9941 15.249 15.5059C14.5399 16.0176 13.7191 16.3546 12.854 16.4891C11.9889 16.6236 11.1041 16.5519 10.2722 16.2798C9.44033 16.0077 8.68505 15.5429 8.06835 14.9237C7.45165 14.3044 6.9911 13.5483 6.72449 12.7174C6.45787 11.8865 6.3928 11.0045 6.53459 10.1436C6.67639 9.28281 7.02102 8.46775 7.5402 7.76532L11.708 9.14939C11.8975 9.21227 12.1023 9.21227 12.2918 9.14939L16.4596 7.76532C17.1611 8.71243 17.5392 9.85875 17.5383 11.0358ZM16.4655 5.82451C16.4632 5.82532 16.4609 5.82589 16.4586 5.82681L11.9999 7.30745L7.54113 5.82681C7.53882 5.82589 7.53651 5.8252 7.5342 5.82451L3.84216 4.59827L11.9999 1.8891L20.1577 4.59827L16.4655 5.82451Z" fill="#FE0000"/>
</svg>
