<svg width="23" height="19" viewBox="0 0 23 19" fill="none" xmlns="http://www.w3.org/2000/svg">
<path d="M21.2308 0H1.76923C1.30016 0.000514319 0.850459 0.18266 0.518777 0.506475C0.187097 0.83029 0.000526812 1.26933 0 1.72727V17.2728C1.45207e-05 17.4997 0.0457913 17.7243 0.134717 17.9338C0.223642 18.1434 0.353975 18.3338 0.518274 18.4942C0.682572 18.6546 0.877619 18.7818 1.09228 18.8686C1.30694 18.9554 1.537 19 1.76934 19L3.24997 18.9999C3.41724 18.9999 3.58107 18.9535 3.72246 18.8662C3.86385 18.779 3.97699 18.6544 4.04877 18.5069C4.47958 17.6208 5.15902 16.8721 6.00821 16.3479C6.85739 15.8237 7.84146 15.5455 8.84615 15.5455C9.85084 15.5455 10.8349 15.8237 11.6841 16.3479C12.5333 16.8721 13.2127 17.6208 13.6435 18.5069C13.7153 18.6544 13.8285 18.779 13.9699 18.8663C14.1113 18.9535 14.2752 18.9999 14.4425 18.9999L21.2308 19C21.6998 18.9995 22.1495 18.8173 22.4812 18.4935C22.8129 18.1697 22.9995 17.7307 23 17.2727V1.72727C22.9995 1.26933 22.8129 0.83029 22.4812 0.506475C22.1495 0.18266 21.6998 0.000514319 21.2308 0ZM6.19231 11.2273C6.19231 10.7148 6.34795 10.2139 6.63956 9.78784C6.93117 9.36177 7.34564 9.02968 7.83057 8.83358C8.3155 8.63748 8.8491 8.58618 9.36389 8.68615C9.87869 8.78612 10.3516 9.03288 10.7227 9.39522C11.0939 9.75757 11.3466 10.2192 11.449 10.7218C11.5514 11.2244 11.4989 11.7453 11.298 12.2188C11.0971 12.6922 10.757 13.0968 10.3206 13.3815C9.88413 13.6662 9.37103 13.8182 8.84615 13.8182C8.14255 13.8174 7.468 13.5442 6.97047 13.0585C6.47295 12.5727 6.1931 11.9142 6.19231 11.2273ZM21.2308 17.2727L14.9759 17.2726C14.237 16.0327 13.1232 15.0463 11.7873 14.4489C12.457 13.8668 12.9296 13.0997 13.1426 12.2494C13.3556 11.399 13.2989 10.5056 12.9799 9.68747C12.6609 8.86935 12.0948 8.1652 11.3565 7.66836C10.6183 7.17153 9.74281 6.90547 8.84615 6.90547C7.9495 6.90547 7.07403 7.17153 6.33578 7.66836C5.59754 8.1652 5.03141 8.86935 4.71243 9.68747C4.39344 10.5056 4.33668 11.399 4.54967 12.2494C4.76266 13.0997 5.23533 13.8668 5.90503 14.4489C4.56915 15.0464 3.45536 16.0328 2.71643 17.2727H1.76923V1.72727H21.2308V17.2727ZM3.53846 6.04545V4.31818C3.53846 4.08913 3.63166 3.86946 3.79756 3.7075C3.96346 3.54554 4.18846 3.45455 4.42308 3.45455H18.5769C18.8115 3.45455 19.0365 3.54554 19.2024 3.7075C19.3683 3.86946 19.4615 4.08913 19.4615 4.31818V14.6818C19.4615 14.9109 19.3683 15.1305 19.2024 15.2925C19.0365 15.4545 18.8115 15.5455 18.5769 15.5455H16.8077C16.5731 15.5455 16.3481 15.4545 16.1822 15.2925C16.0163 15.1305 15.9231 14.9109 15.9231 14.6818C15.9231 14.4528 16.0163 14.2331 16.1822 14.0711C16.3481 13.9092 16.5731 13.8182 16.8077 13.8182H17.6923V5.18182H5.30769V6.04545C5.30769 6.27451 5.21449 6.49417 5.04859 6.65614C4.8827 6.8181 4.65769 6.90909 4.42308 6.90909C4.18846 6.90909 3.96346 6.8181 3.79756 6.65614C3.63166 6.49417 3.53846 6.27451 3.53846 6.04545Z" fill="#AA0000"/>
</svg>
